<svg width="25" height="25" viewBox="0 0 25 25" fill="none" xmlns="http://www.w3.org/2000/svg">
<path d="M10.9875 12.6346L10.9875 12.6798L10.9875 12.6798L16.7527 12.6801L10.9875 12.6346ZM10.9875 12.6346C10.9875 12.6346 10.9875 12.6346 10.9875 12.6346L10.9875 12.6346ZM16.2984 13.1343L15.6125 13.8202C15.4762 13.9566 15.3996 14.1415 15.3996 14.3344C15.3996 14.5272 15.4762 14.7122 15.6125 14.8485C15.7489 14.9849 15.9339 15.0615 16.1267 15.0615C16.3195 15.0615 16.5045 14.9849 16.6409 14.8485L18.568 12.9213C18.7044 12.785 18.781 12.6 18.781 12.4072C18.781 12.2143 18.7044 12.0294 18.568 11.893L16.6409 9.96585C16.5045 9.82949 16.3195 9.75288 16.1267 9.75288C15.9339 9.75288 15.7489 9.82949 15.6125 9.96585C15.4762 10.1022 15.3996 10.2872 15.3996 10.48C15.3996 10.6728 15.4762 10.8578 15.6125 10.9942L16.2984 11.68L10.9876 11.6798L10.9875 11.6798C10.892 11.6798 10.7974 11.6986 10.7092 11.7352C10.6209 11.7717 10.5407 11.8253 10.4732 11.8928C10.4056 11.9604 10.3521 12.0406 10.3155 12.1288C10.2789 12.2171 10.2601 12.3117 10.2601 12.4072C10.2601 12.5027 10.2789 12.5973 10.3155 12.6856C10.3521 12.7738 10.4056 12.854 10.4732 12.9215C10.5407 12.9891 10.6209 13.0427 10.7092 13.0792C10.7974 13.1158 10.892 13.1346 10.9875 13.1346L10.9876 13.1346L16.2984 13.1343Z" fill="#E51A2F" stroke="#E51A2F"/>
<circle cx="12.4329" cy="12.4329" r="12.4329" fill="#C91A2C"/>
<circle cx="12.5088" cy="12.5089" r="10.2344" fill="#E51A2F"/>
<path d="M8.77563 11.8321L8.77562 11.8321C8.71292 11.8321 8.65084 11.8445 8.59292 11.8685C8.535 11.8925 8.48237 11.9276 8.43804 11.972C8.39371 12.0163 8.35854 12.0689 8.33455 12.1268C8.31056 12.1848 8.29821 12.2468 8.29821 12.3095C8.29821 12.3722 8.31056 12.4343 8.33455 12.4922C8.35854 12.5502 8.39371 12.6028 8.43804 12.6471C8.48237 12.6914 8.535 12.7266 8.59292 12.7506C8.65084 12.7746 8.71292 12.7869 8.77562 12.7869H8.77563L14.6901 12.7867L13.5774 13.8993C13.4879 13.9888 13.4377 14.1102 13.4377 14.2367C13.4377 14.3633 13.4879 14.4846 13.5774 14.5741C13.6669 14.6636 13.7882 14.7138 13.9148 14.7138C14.0413 14.7138 14.1627 14.6636 14.2522 14.5741L16.1793 12.6469C16.2688 12.5574 16.3191 12.4361 16.3191 12.3095C16.3191 12.183 16.2688 12.0616 16.1793 11.9722L14.2522 10.045C14.1627 9.95549 14.0413 9.90523 13.9148 9.90523C13.7882 9.90523 13.6669 9.95549 13.5774 10.045C13.4879 10.1344 13.4377 10.2558 13.4377 10.3823C13.4377 10.5089 13.4879 10.6302 13.5774 10.7197L14.6901 11.8324L8.77563 11.8321Z" fill="white" stroke="white" stroke-width="0.5"/>
</svg>
