<svg width="37" height="40" viewBox="0 0 37 40" fill="none" xmlns="http://www.w3.org/2000/svg">
<g clip-path="url(#clip0_320_26)">
<path d="M13.9226 12.4151C13.8654 12.5897 13.7891 12.6867 13.5984 12.7061L0.381348 13.2881L9.36434 16.3531L15.9824 15.8099C16.154 15.7905 16.3066 15.6741 16.3638 15.4995L18.2901 8.613C18.3283 8.32202 18.3664 8.03104 18.4045 7.72066L18.0994 0L13.9226 12.4151Z" fill="white"/>
<path d="M11.5959 22.6185L15.067 21.1442L8.75412 16.7601L0 13.8115L11.5959 22.6185Z" fill="white"/>
<path d="M22.9628 12.4349L20.9602 15.6745L28.7416 15.3835L36.9999 11.9111L22.9628 12.4349Z" fill="white"/>
<path d="M28.0551 16.3145L22.6768 20.8926L26.2623 22.1147C26.3005 22.0759 36.8855 12.6094 36.8855 12.6094L28.0551 16.3145Z" fill="white"/>
<path d="M15.1243 21.7461L11.4624 23.2786L6.33203 39.6316L13.1599 28.4774L15.1243 21.7461Z" fill="white"/>
<path d="M25.5186 29.3505L19.1104 24.9082L13.465 29.1759L6.82788 40.0003L19.2439 28.7297L29.6 35.3447L25.5186 29.3505Z" fill="white"/>
</g>
<defs>
<clipPath id="clip0_320_26">
<rect width="37" height="40" fill="white"/>
</clipPath>
</defs>
</svg>
