<svg width="100" height="100" viewBox="0 0 100 100" fill="none" xmlns="http://www.w3.org/2000/svg">
<path d="M69.1917 51.2021L63.8544 56.5353C63.5893 56.8002 63.4404 57.1594 63.4404 57.534C63.4404 57.9086 63.5893 58.2679 63.8544 58.5328C64.1195 58.7977 64.4791 58.9465 64.854 58.9465C65.2289 58.9465 65.5884 58.7977 65.8535 58.5328L73.6039 50.7885C73.869 50.5236 74.0179 50.1643 74.0179 49.7897C74.0179 49.4151 73.869 49.0558 73.6039 48.791L65.8535 41.0466C65.5884 40.7818 65.2289 40.6329 64.854 40.6329C64.4791 40.6329 64.1195 40.7818 63.8544 41.0466C63.5893 41.3115 63.4404 41.6708 63.4404 42.0454C63.4404 42.42 63.5893 42.7793 63.8544 43.0442L69.1917 48.3773L44.1864 48.3761L44.1864 48.3761C44.0006 48.3761 43.8166 48.4127 43.645 48.4837C43.4733 48.5547 43.3174 48.6589 43.186 48.7901C43.0546 48.9214 42.9504 49.0772 42.8793 49.2488C42.8082 49.4203 42.7716 49.6041 42.7716 49.7897L42.7716 49.7897C42.7716 49.9754 42.8082 50.1592 42.8793 50.3307C42.9504 50.5022 43.0546 50.658 43.186 50.7893C43.3174 50.9206 43.4733 51.0247 43.645 51.0958C43.8166 51.1668 44.0006 51.2034 44.1864 51.2034L44.1864 51.2034L69.1917 51.2021Z" fill="#E51A2F" stroke="#E51A2F"/>
<circle cx="50" cy="50" r="50" fill="#C91A2C"/>
<circle cx="50.305" cy="50.305" r="41.1585" fill="#E51A2F"/>
<path d="M53.367 49.3956L64.1909 38.5802C64.7046 38.0678 64.9935 37.3725 64.9942 36.6472C64.9948 35.9219 64.7071 35.2261 64.1943 34.7128C63.6815 34.1995 62.9856 33.9108 62.2598 33.9101C61.534 33.9095 60.8376 34.197 60.3239 34.7094L49.5 45.5248L38.6761 34.7094C38.1624 34.1961 37.4657 33.9077 36.7392 33.9077C36.0127 33.9077 35.316 34.1961 34.8023 34.7094C34.2886 35.2227 34 35.9189 34 36.6448C34 37.3707 34.2886 38.0669 34.8023 38.5802L45.6262 49.3956L34.8023 60.2111C34.2886 60.7244 34 61.4205 34 62.1465C34 62.8724 34.2886 63.5686 34.8023 64.0818C35.316 64.5951 36.0127 64.8835 36.7392 64.8835C37.4657 64.8835 38.1624 64.5951 38.6761 64.0818L49.5 53.2664L60.3239 64.0818C60.8376 64.5951 61.5343 64.8835 62.2608 64.8835C62.9873 64.8835 63.684 64.5951 64.1977 64.0818C64.7114 63.5686 65 62.8724 65 62.1465C65 61.4205 64.7114 60.7244 64.1977 60.2111L53.367 49.3956Z" fill="#FEFEFE"/>
</svg>
