<svg width="31" height="32" viewBox="0 0 31 32" fill="none" xmlns="http://www.w3.org/2000/svg">
<path d="M19.367 16.3956L30.1909 5.58017C30.7046 5.06778 30.9935 4.37247 30.9942 3.64719C30.9948 2.92192 30.7071 2.2261 30.1943 1.7128C29.6815 1.1995 28.9856 0.910771 28.2598 0.91013C27.534 0.90949 26.8376 1.19699 26.3239 1.70938L15.5 12.5248L4.67611 1.70938C4.16241 1.19608 3.46568 0.907715 2.7392 0.907715C2.01272 0.907715 1.31599 1.19608 0.802294 1.70938C0.288594 2.22268 0 2.91886 0 3.64478C0 4.37069 0.288594 5.06687 0.802294 5.58017L11.6262 16.3956L0.802294 27.2111C0.288594 27.7244 0 28.4205 0 29.1465C0 29.8724 0.288594 30.5686 0.802294 31.0818C1.31599 31.5951 2.01272 31.8835 2.7392 31.8835C3.46568 31.8835 4.16241 31.5951 4.67611 31.0818L15.5 20.2664L26.3239 31.0818C26.8376 31.5951 27.5343 31.8835 28.2608 31.8835C28.9873 31.8835 29.684 31.5951 30.1977 31.0818C30.7114 30.5686 31 29.8724 31 29.1465C31 28.4205 30.7114 27.7244 30.1977 27.2111L19.367 16.3956Z" fill="#FEFEFE"/>
</svg>
