<svg width="33" height="34" viewBox="0 0 33 34" fill="none" xmlns="http://www.w3.org/2000/svg">
<circle cx="16.5" cy="17.1177" r="16.5" transform="rotate(-180 16.5 17.1177)" fill="#E51A2F"/>
<mask id="path-2-outside-1_321_296" maskUnits="userSpaceOnUse" x="9.69846" y="10.593" width="13.435" height="13.435" fill="black">
<rect fill="white" x="9.69846" y="10.593" width="13.435" height="13.435"/>
<path fill-rule="evenodd" clip-rule="evenodd" d="M12.439 17.1997C12.3891 17.2496 12.361 17.3173 12.361 17.388C12.361 17.4586 12.3891 17.5263 12.439 17.5762L14.6983 19.8355C14.7482 19.8854 14.816 19.9135 14.8866 19.9135C14.9572 19.9135 15.0249 19.8854 15.0748 19.8355C15.1248 19.7856 15.1528 19.7178 15.1528 19.6472C15.1528 19.5766 15.1248 19.5089 15.0748 19.459L13.2701 17.6542L20.9113 17.6546C20.9463 17.6546 20.981 17.6477 21.0133 17.6343C21.0457 17.6209 21.075 17.6012 21.0998 17.5765C21.1246 17.5517 21.1442 17.5223 21.1576 17.49C21.171 17.4576 21.1779 17.423 21.1779 17.388C21.1779 17.3529 21.171 17.3183 21.1576 17.2859C21.1442 17.2536 21.1246 17.2242 21.0998 17.1994C21.075 17.1747 21.0457 17.1551 21.0133 17.1417C20.981 17.1283 20.9463 17.1214 20.9113 17.1214L13.2701 17.1217L15.0748 15.317C15.1248 15.267 15.1528 15.1993 15.1528 15.1287C15.1528 15.0581 15.1248 14.9903 15.0748 14.9404C15.0249 14.8905 14.9572 14.8624 14.8866 14.8624C14.816 14.8624 14.7482 14.8905 14.6983 14.9404L12.439 17.1997Z"/>
</mask>
<path fill-rule="evenodd" clip-rule="evenodd" d="M12.439 17.1997C12.3891 17.2496 12.361 17.3173 12.361 17.388C12.361 17.4586 12.3891 17.5263 12.439 17.5762L14.6983 19.8355C14.7482 19.8854 14.816 19.9135 14.8866 19.9135C14.9572 19.9135 15.0249 19.8854 15.0748 19.8355C15.1248 19.7856 15.1528 19.7178 15.1528 19.6472C15.1528 19.5766 15.1248 19.5089 15.0748 19.459L13.2701 17.6542L20.9113 17.6546C20.9463 17.6546 20.981 17.6477 21.0133 17.6343C21.0457 17.6209 21.075 17.6012 21.0998 17.5765C21.1246 17.5517 21.1442 17.5223 21.1576 17.49C21.171 17.4576 21.1779 17.423 21.1779 17.388C21.1779 17.3529 21.171 17.3183 21.1576 17.2859C21.1442 17.2536 21.1246 17.2242 21.0998 17.1994C21.075 17.1747 21.0457 17.1551 21.0133 17.1417C20.981 17.1283 20.9463 17.1214 20.9113 17.1214L13.2701 17.1217L15.0748 15.317C15.1248 15.267 15.1528 15.1993 15.1528 15.1287C15.1528 15.0581 15.1248 14.9903 15.0748 14.9404C15.0249 14.8905 14.9572 14.8624 14.8866 14.8624C14.816 14.8624 14.7482 14.8905 14.6983 14.9404L12.439 17.1997Z" fill="white"/>
<path d="M12.439 17.5762L11.7319 18.2833L12.439 17.5762ZM13.2701 17.6542L13.2701 16.6542L10.8557 16.6541L12.563 18.3613L13.2701 17.6542ZM20.9113 17.6546L20.9112 18.6546L20.9113 18.6546L20.9113 17.6546ZM21.0998 17.1994L20.3927 17.9066L21.0998 17.1994ZM20.9113 17.1214L20.9113 16.1214L20.9112 16.1214L20.9113 17.1214ZM13.2701 17.1217L12.563 16.4146L10.8557 18.1219L13.2701 18.1217L13.2701 17.1217ZM11.7319 16.4926C11.4944 16.73 11.361 17.0521 11.361 17.388L13.361 17.388C13.361 17.5826 13.2837 17.7692 13.1461 17.9068L11.7319 16.4926ZM11.361 17.388C11.361 17.7238 11.4944 18.0459 11.7319 18.2833L13.1461 16.8691C13.2837 17.0067 13.361 17.1934 13.361 17.388L11.361 17.388ZM11.7319 18.2833L13.9912 20.5426L15.4054 19.1284L13.1461 16.8691L11.7319 18.2833ZM13.9912 20.5426C14.2287 20.7801 14.5507 20.9135 14.8866 20.9135L14.8866 18.9135C15.0812 18.9135 15.2678 18.9908 15.4054 19.1284L13.9912 20.5426ZM14.8866 20.9135C15.2224 20.9135 15.5445 20.7801 15.7819 20.5426L14.3677 19.1284C14.5053 18.9908 14.692 18.9135 14.8866 18.9135L14.8866 20.9135ZM15.7819 20.5426C16.0194 20.3051 16.1528 19.9831 16.1528 19.6472L14.1528 19.6472C14.1528 19.4526 14.2301 19.266 14.3677 19.1284L15.7819 20.5426ZM16.1528 19.6472C16.1528 19.3114 16.0194 18.9893 15.7819 18.7519L14.3677 20.1661C14.2301 20.0285 14.1528 19.8418 14.1528 19.6472L16.1528 19.6472ZM15.7819 18.7519L13.9772 16.9471L12.563 18.3613L14.3677 20.1661L15.7819 18.7519ZM13.27 18.6542L20.9112 18.6546L20.9113 16.6546L13.2701 16.6542L13.27 18.6542ZM20.9113 18.6546C21.0776 18.6546 21.2423 18.6218 21.396 18.5581L20.6306 16.7104C20.7196 16.6735 20.815 16.6546 20.9113 16.6546L20.9113 18.6546ZM21.396 18.5581C21.5497 18.4945 21.6893 18.4012 21.8069 18.2836L20.3927 16.8694C20.4608 16.8013 20.5416 16.7472 20.6306 16.7104L21.396 18.5581ZM21.8069 18.2836C21.9245 18.166 22.0178 18.0263 22.0815 17.8727L20.2337 17.1073C20.2706 17.0183 20.3246 16.9375 20.3927 16.8694L21.8069 18.2836ZM22.0815 17.8727C22.1451 17.719 22.1779 17.5543 22.1779 17.388L20.1779 17.388C20.1779 17.2916 20.1969 17.1963 20.2337 17.1073L22.0815 17.8727ZM22.1779 17.388C22.1779 17.2216 22.1451 17.0569 22.0815 16.9033L20.2337 17.6686C20.1969 17.5796 20.1779 17.4843 20.1779 17.388L22.1779 17.388ZM22.0815 16.9033C22.0178 16.7496 21.9245 16.61 21.8069 16.4923L20.3927 17.9066C20.3246 17.8385 20.2706 17.7576 20.2337 17.6686L22.0815 16.9033ZM21.8069 16.4923C21.6893 16.3747 21.5497 16.2814 21.396 16.2178L20.6306 18.0655C20.5416 18.0287 20.4608 17.9747 20.3927 17.9066L21.8069 16.4923ZM21.396 16.2178C21.2423 16.1541 21.0776 16.1214 20.9113 16.1214L20.9113 18.1214C20.815 18.1214 20.7196 18.1024 20.6306 18.0655L21.396 16.2178ZM20.9112 16.1214L13.27 16.1217L13.2701 18.1217L20.9113 18.1214L20.9112 16.1214ZM13.9772 17.8288L15.7819 16.0241L14.3677 14.6099L12.563 16.4146L13.9772 17.8288ZM15.7819 16.0241C16.0194 15.7866 16.1528 15.4645 16.1528 15.1287L14.1528 15.1287C14.1528 14.9341 14.2301 14.7475 14.3677 14.6099L15.7819 16.0241ZM16.1528 15.1287C16.1528 14.7929 16.0194 14.4708 15.7819 14.2333L14.3677 15.6475C14.2301 15.5099 14.1528 15.3233 14.1528 15.1287L16.1528 15.1287ZM15.7819 14.2333C15.5445 13.9958 15.2224 13.8624 14.8866 13.8624L14.8866 15.8624C14.692 15.8624 14.5053 15.7851 14.3677 15.6475L15.7819 14.2333ZM14.8866 13.8624C14.5507 13.8624 14.2287 13.9958 13.9912 14.2333L15.4054 15.6475C15.2678 15.7851 15.0812 15.8624 14.8866 15.8624L14.8866 13.8624ZM13.9912 14.2333L11.7319 16.4926L13.1461 17.9068L15.4054 15.6475L13.9912 14.2333Z" fill="white" mask="url(#path-2-outside-1_321_296)"/>
</svg>
