<svg width="39" height="24" viewBox="0 0 39 24" fill="none" xmlns="http://www.w3.org/2000/svg">
<path d="M36.1062 13.7053L36.1062 13.7053C36.3143 13.7053 36.5203 13.6644 36.7125 13.5847C36.9048 13.5051 37.0794 13.3884 37.2265 13.2413C37.3737 13.0942 37.4904 12.9195 37.57 12.7273C37.6496 12.5351 37.6906 12.329 37.6906 12.121C37.6906 11.9129 37.6496 11.7069 37.57 11.5147C37.4904 11.3224 37.3737 11.1478 37.2265 11.0007C37.0794 10.8536 36.9048 10.7368 36.7125 10.6572C36.5203 10.5776 36.3143 10.5366 36.1062 10.5366L36.1062 10.5366L6.23294 10.5381L12.7202 4.05082C13.0171 3.75395 13.1839 3.35131 13.1839 2.93148C13.1839 2.51164 13.0171 2.109 12.7202 1.81213C12.4233 1.51526 12.0207 1.34848 11.6009 1.34848C11.181 1.34848 10.7784 1.51526 10.4815 1.81213L1.29201 11.0016C0.995145 11.2985 0.828364 11.7012 0.828364 12.121C0.828364 12.5408 0.995144 12.9435 1.29201 13.2403L10.4815 22.4298C10.7784 22.7267 11.181 22.8935 11.6009 22.8935C12.0207 22.8935 12.4233 22.7267 12.7202 22.4298C13.0171 22.133 13.1839 21.7303 13.1839 21.3105C13.1839 20.8907 13.0171 20.488 12.7202 20.1912L6.23294 13.7039L36.1062 13.7053Z" fill="#E51A2F" stroke="#E51A2F"/>
</svg>
