<svg width="33" height="21" viewBox="0 0 33 21" fill="none" xmlns="http://www.w3.org/2000/svg">
<path d="M27.2996 11.9148L21.962 17.2525C21.6969 17.5175 21.548 17.877 21.548 18.2519C21.548 18.6267 21.6969 18.9862 21.962 19.2513C22.227 19.5164 22.5865 19.6653 22.9614 19.6653C23.3363 19.6653 23.6958 19.5164 23.9608 19.2513L31.7112 11.501C31.9762 11.2359 32.1251 10.8764 32.1251 10.5015C32.1251 10.1267 31.9762 9.76718 31.7112 9.50212L23.9608 1.75176C23.6958 1.4867 23.3363 1.33779 22.9614 1.33779C22.5865 1.33779 22.227 1.4867 21.962 1.75176C21.6969 2.01682 21.548 2.37632 21.548 2.75118C21.548 3.12603 21.6969 3.48553 21.962 3.75059L27.2996 9.08822L2.2938 9.08699L2.29378 9.08699C2.10802 9.08699 1.92408 9.12358 1.75246 9.19467C1.58083 9.26576 1.4249 9.36995 1.29354 9.5013C1.16219 9.63265 1.058 9.78859 0.98691 9.96021C0.915824 10.1318 0.879234 10.3158 0.879235 10.5015C0.879235 10.6873 0.915822 10.8712 0.986911 11.0429C1.058 11.2145 1.16219 11.3704 1.29355 11.5018C1.4249 11.6331 1.58083 11.7373 1.75245 11.8084C1.92408 11.8795 2.10802 11.9161 2.29378 11.9161L2.2938 11.9161L27.2996 11.9148Z" fill="white" stroke="white"/>
</svg>
