<svg width="25" height="15" viewBox="0 0 25 15" fill="none" xmlns="http://www.w3.org/2000/svg">
<path d="M12.5002 14.8221C12.2169 14.8221 11.9427 14.7689 11.6778 14.6627C11.4115 14.5564 11.1898 14.4148 11.0127 14.2377L1.23769 4.4627C0.848111 4.07311 0.65332 3.57728 0.65332 2.97519C0.65332 2.37311 0.848111 1.87728 1.23769 1.48769C1.62728 1.09811 2.12311 0.90332 2.7252 0.90332C3.32728 0.90332 3.82311 1.09811 4.2127 1.48769L12.5002 9.7752L20.7877 1.48769C21.1773 1.09811 21.6731 0.90332 22.2752 0.90332C22.8773 0.90332 23.3731 1.09811 23.7627 1.48769C24.1523 1.87728 24.3471 2.37311 24.3471 2.97519C24.3471 3.57728 24.1523 4.07311 23.7627 4.4627L13.9877 14.2377C13.7752 14.4502 13.545 14.6004 13.2971 14.6882C13.0492 14.7774 12.7835 14.8221 12.5002 14.8221Z" fill="#024670"/>
</svg>
