<svg width="39" height="24" viewBox="0 0 39 24" fill="none" xmlns="http://www.w3.org/2000/svg">
<path d="M32.2866 13.7041L25.7993 20.1914C25.5024 20.4882 25.3357 20.8909 25.3357 21.3107C25.3357 21.7306 25.5024 22.1332 25.7993 22.4301C26.0962 22.7269 26.4988 22.8937 26.9187 22.8937C27.3385 22.8937 27.7411 22.7269 28.038 22.4301L37.2275 13.2405C37.5244 12.9437 37.6912 12.541 37.6912 12.1212C37.6912 11.7014 37.5244 11.2987 37.2275 11.0019L28.038 1.81234C27.7411 1.51547 27.3385 1.3487 26.9187 1.3487C26.4988 1.3487 26.0962 1.51547 25.7993 1.81234C25.5024 2.10921 25.3357 2.51185 25.3357 2.93169C25.3357 3.35153 25.5024 3.75417 25.7993 4.05104L32.2866 10.5383L2.41332 10.5368L2.41329 10.5368C2.20523 10.5368 1.99921 10.5778 1.80699 10.6574C1.61476 10.7371 1.4401 10.8538 1.29298 11.0009C1.14586 11.148 1.02916 11.3227 0.949535 11.5149C0.869913 11.7071 0.828933 11.9131 0.828933 12.1212C0.828932 12.3293 0.869915 12.5353 0.949534 12.7275C1.02916 12.9197 1.14586 13.0944 1.29298 13.2415C1.4401 13.3886 1.61476 13.5053 1.80699 13.585C1.99921 13.6646 2.20523 13.7056 2.4133 13.7056L2.41332 13.7056L32.2866 13.7041Z" fill="#E51A2F" stroke="#E51A2F"/>
</svg>
