<svg width="100" height="100" viewBox="0 0 100 100" fill="none" xmlns="http://www.w3.org/2000/svg">
<circle cx="50" cy="50" r="50" fill="#C91A2C"/>
<circle cx="50.3048" cy="50.3049" r="41.1585" fill="#E51A2F"/>
<path d="M60.2996 50.9148L54.962 56.2525C54.6969 56.5175 54.548 56.877 54.548 57.2519C54.548 57.6267 54.6969 57.9862 54.962 58.2513C55.227 58.5164 55.5865 58.6653 55.9614 58.6653C56.3363 58.6653 56.6958 58.5164 56.9608 58.2513L64.7112 50.501C64.9762 50.2359 65.1251 49.8764 65.1251 49.5015C65.1251 49.1267 64.9762 48.7672 64.7112 48.5021L56.9608 40.7518C56.6958 40.4867 56.3363 40.3378 55.9614 40.3378C55.5865 40.3378 55.227 40.4867 54.962 40.7518C54.6969 41.0168 54.548 41.3763 54.548 41.7512C54.548 42.126 54.6969 42.4855 54.962 42.7506L60.2996 48.0882L35.2938 48.087L35.2938 48.087C35.108 48.087 34.9241 48.1236 34.7525 48.1947C34.5808 48.2658 34.4249 48.3699 34.2935 48.5013C34.1622 48.6327 34.058 48.7886 33.9869 48.9602C33.9158 49.1318 33.8792 49.3158 33.8792 49.5015C33.8792 49.6873 33.9158 49.8712 33.9869 50.0429C34.058 50.2145 34.1622 50.3704 34.2935 50.5018C34.4249 50.6331 34.5808 50.7373 34.7525 50.8084C34.9241 50.8795 35.108 50.9161 35.2938 50.9161L35.2938 50.9161L60.2996 50.9148Z" fill="white" stroke="white"/>
</svg>
