<svg width="28" height="29" viewBox="0 0 28 29" fill="none" xmlns="http://www.w3.org/2000/svg">
<path d="M13.9962 9.66461C11.4255 9.66461 9.32767 11.8375 9.32767 14.5C9.32767 17.1625 11.4255 19.3354 13.9962 19.3354C16.5669 19.3354 18.6648 17.1625 18.6648 14.5C18.6648 11.8375 16.5669 9.66461 13.9962 9.66461ZM27.9984 14.5C27.9984 12.4976 28.0159 10.5134 27.9074 8.51471C27.7988 6.19314 27.2875 4.13275 25.6484 2.4351C24.0058 0.733824 22.02 0.207844 19.7785 0.0953926C17.8453 -0.0170583 15.9295 0.00107896 13.9997 0.00107896C12.0665 0.00107896 10.1507 -0.0170583 8.22094 0.0953926C5.97947 0.207844 3.99016 0.737451 2.35109 2.4351C0.708507 4.13637 0.200673 6.19314 0.0921015 8.51471C-0.0164698 10.5171 0.00104174 12.5013 0.00104174 14.5C0.00104174 16.4987 -0.0164698 18.4866 0.0921015 20.4853C0.200673 22.8069 0.712009 24.8673 2.35109 26.5649C3.99367 28.2662 5.97947 28.7922 8.22094 28.9046C10.1542 29.0171 12.07 28.9989 13.9997 28.9989C15.933 28.9989 17.8488 29.0171 19.7785 28.9046C22.02 28.7922 24.0093 28.2625 25.6484 26.5649C27.291 24.8636 27.7988 22.8069 27.9074 20.4853C28.0195 18.4866 27.9984 16.5024 27.9984 14.5ZM13.9962 21.9399C10.0211 21.9399 6.81302 18.6172 6.81302 14.5C6.81302 10.3828 10.0211 7.0601 13.9962 7.0601C17.9713 7.0601 21.1795 10.3828 21.1795 14.5C21.1795 18.6172 17.9713 21.9399 13.9962 21.9399ZM21.4736 8.49294C20.5455 8.49294 19.796 7.71667 19.796 6.75539C19.796 5.79412 20.5455 5.01784 21.4736 5.01784C22.4018 5.01784 23.1513 5.79412 23.1513 6.75539C23.1515 6.98365 23.1083 7.20972 23.0241 7.42066C22.9399 7.6316 22.8163 7.82326 22.6605 7.98466C22.5047 8.14607 22.3196 8.27404 22.116 8.36126C21.9123 8.44848 21.694 8.49323 21.4736 8.49294Z" fill="white"/>
</svg>
