<svg width="30" height="30" viewBox="0 0 30 30" fill="none" xmlns="http://www.w3.org/2000/svg">
<path d="M0.83967 29.1663L2.755 22.1283C1.49295 19.9649 0.829889 17.5043 0.834003 14.9997C0.834003 7.17542 7.17642 0.833008 15.0007 0.833008C22.8249 0.833008 29.1673 7.17542 29.1673 14.9997C29.1673 22.8239 22.8249 29.1663 15.0007 29.1663C12.4971 29.1704 10.0376 28.5078 7.87484 27.2468L0.83967 29.1663ZM9.88792 8.35267C9.70497 8.36403 9.52621 8.41222 9.36234 8.49434C9.20866 8.58137 9.06837 8.69016 8.94584 8.81734C8.77584 8.97742 8.6795 9.11626 8.57609 9.25084C8.0525 9.93225 7.77087 10.7687 7.77567 11.628C7.7785 12.3222 7.95984 12.9979 8.24317 13.6298C8.82259 14.9076 9.776 16.2605 11.0354 17.5143C11.3386 17.816 11.6347 18.1192 11.9534 18.4011C13.5166 19.7773 15.3793 20.7698 17.3934 21.2996L18.1995 21.4228C18.4616 21.437 18.7237 21.4172 18.9872 21.4044C19.3998 21.3831 19.8026 21.2714 20.1673 21.0772C20.3528 20.9816 20.5338 20.8776 20.7098 20.7655C20.7098 20.7655 20.7708 20.7258 20.8869 20.638C21.0782 20.4963 21.1958 20.3958 21.3544 20.23C21.472 20.1082 21.574 19.9651 21.6519 19.8022C21.7624 19.5713 21.8729 19.1307 21.9183 18.7638C21.9523 18.4833 21.9423 18.3303 21.9381 18.2353C21.9324 18.0838 21.8063 17.9265 21.6689 17.8599L20.8444 17.4902C20.8444 17.4902 19.6119 16.9533 18.8597 16.6104C18.7804 16.5759 18.6954 16.5562 18.6089 16.5523C18.512 16.5424 18.4141 16.5533 18.3217 16.5843C18.2293 16.6154 18.1447 16.6658 18.0734 16.7323V16.7294C18.0663 16.7294 17.9714 16.8102 16.9472 18.0512C16.8884 18.1302 16.8074 18.1899 16.7146 18.2227C16.6217 18.2555 16.5212 18.2599 16.4258 18.2353C16.3335 18.2107 16.2431 18.1794 16.1553 18.1418C15.9796 18.0682 15.9187 18.0398 15.7983 17.9874L15.7912 17.9846C14.9807 17.6307 14.2303 17.1528 13.567 16.5679C13.3885 16.4121 13.2228 16.2421 13.0528 16.0778C12.4954 15.544 12.0097 14.9402 11.6078 14.2814L11.5242 14.1468C11.4641 14.0564 11.4156 13.9589 11.3797 13.8564C11.3258 13.6482 11.4661 13.481 11.4661 13.481C11.4661 13.481 11.8103 13.1042 11.9704 12.9002C12.1037 12.7306 12.2281 12.5543 12.343 12.3718C12.5102 12.1026 12.5626 11.8263 12.4748 11.6124C12.0781 10.6434 11.6673 9.67867 11.2451 8.72101C11.1615 8.53117 10.9136 8.39517 10.6883 8.36826C10.6118 8.35976 10.5353 8.35126 10.4588 8.34559C10.2686 8.33614 10.0779 8.33803 9.88792 8.35126V8.35267Z" fill="#E51A2F"/>
</svg>
