<svg width="28" height="27" viewBox="0 0 28 27" fill="none" xmlns="http://www.w3.org/2000/svg">
<path d="M26 0.375H2C1.60218 0.375 1.22064 0.528645 0.93934 0.802136C0.658035 1.07563 0.5 1.44656 0.5 1.83333V25.1667C0.5 25.5534 0.658035 25.9244 0.93934 26.1979C1.22064 26.4714 1.60218 26.625 2 26.625H14.9225V16.475H11.4155V12.501H14.9225V9.58437C14.9225 6.19375 17.0525 4.34604 20.1725 4.34604C21.221 4.34313 22.271 4.39563 23.315 4.50208V8.03125H21.1625C19.4705 8.03125 19.1405 8.81583 19.1405 9.96354V12.4938H23.186L22.661 16.4677H19.139V26.625H26C26.3978 26.625 26.7794 26.4714 27.0607 26.1979C27.342 25.9244 27.5 25.5534 27.5 25.1667V1.83333C27.5 1.44656 27.342 1.07563 27.0607 0.802136C26.7794 0.528645 26.3978 0.375 26 0.375Z" fill="white"/>
</svg>
