<svg width="288" height="88" viewBox="0 0 288 88" fill="none" xmlns="http://www.w3.org/2000/svg">
<g clip-path="url(#clip0_302_992)">
<path d="M86.7256 66.9041H88.1679V74.7397H86.7256V66.9041Z" fill="#0070B3"/>
<path d="M96.0308 69.3151C96.4961 69.7787 96.7287 70.4278 96.7287 71.2624V74.6934H95.3329V71.4479C95.3329 70.9379 95.1933 70.5206 94.9607 70.2888C94.7281 70.0106 94.3559 69.8715 93.8906 69.8715C93.3788 69.8715 92.9601 70.0106 92.6809 70.3351C92.4017 70.6597 92.2156 71.077 92.2156 71.6797V74.6934H90.8198V68.7124H92.1691V69.5006C92.4017 69.2224 92.6809 69.0369 93.0531 68.8515C93.4253 68.7124 93.7975 68.6196 94.2628 68.6196C94.9607 68.666 95.5655 68.8978 96.0308 69.3151Z" fill="#0070B3"/>
<path d="M99.5668 74.6007C99.1016 74.4616 98.7294 74.3225 98.4502 74.1371L99.0085 73.0707C99.2877 73.2561 99.6134 73.3952 99.9856 73.488C100.358 73.5807 100.73 73.6734 101.102 73.6734C101.94 73.6734 102.358 73.4416 102.358 73.0243C102.358 72.7925 102.265 72.6534 102.033 72.607C101.8 72.5143 101.474 72.4679 101.009 72.3752C100.497 72.2825 100.125 72.2361 99.7995 72.097C99.4738 72.0043 99.2411 71.8188 99.0085 71.587C98.7759 71.3552 98.6828 70.9843 98.6828 70.567C98.6828 70.0106 98.9155 69.547 99.3807 69.2224C99.846 68.8979 100.497 68.7124 101.288 68.7124C101.707 68.7124 102.126 68.7588 102.545 68.8515C102.963 68.9442 103.289 69.0833 103.568 69.2224L103.01 70.2888C102.498 70.0106 101.94 69.8252 101.288 69.8252C100.87 69.8252 100.544 69.8715 100.358 70.0106C100.125 70.1497 100.032 70.2888 100.032 70.5206C100.032 70.7524 100.125 70.8915 100.358 70.9843C100.59 71.077 100.963 71.1697 101.428 71.2625C101.893 71.3552 102.312 71.4016 102.591 71.5406C102.917 71.6334 103.149 71.8188 103.382 72.0507C103.615 72.2825 103.708 72.607 103.708 73.0243C103.708 73.5807 103.475 74.0443 102.963 74.3689C102.498 74.6934 101.8 74.8789 100.963 74.8789C100.497 74.7862 100.032 74.7398 99.5668 74.6007Z" fill="#0070B3"/>
<path d="M111.338 68.7588V74.7398H109.989V73.998C109.756 74.2762 109.477 74.4616 109.151 74.6007C108.826 74.7398 108.454 74.8325 108.081 74.8325C107.29 74.8325 106.639 74.6007 106.174 74.1834C105.708 73.7198 105.476 73.0707 105.476 72.1898V68.7588H106.872V72.0043C106.872 72.5607 107.011 72.9316 107.244 73.2098C107.476 73.488 107.849 73.6271 108.267 73.6271C108.779 73.6271 109.151 73.488 109.477 73.1634C109.756 72.8389 109.942 72.4216 109.942 71.8188V68.8051H111.338V68.7588Z" fill="#0070B3"/>
<path d="M123.202 69.3151C123.668 69.7324 123.854 70.4278 123.854 71.2624V74.6934H122.458V71.4479C122.458 70.9378 122.365 70.5206 122.132 70.2887C121.9 70.0106 121.574 69.8715 121.109 69.8715C120.643 69.8715 120.271 70.0105 119.992 70.3351C119.713 70.6597 119.573 71.0769 119.573 71.6797V74.6934H118.178V71.4479C118.178 70.9378 118.085 70.5206 117.852 70.2887C117.619 70.0106 117.294 69.8715 116.828 69.8715C116.363 69.8715 115.991 70.0105 115.665 70.3351C115.339 70.6597 115.246 71.0769 115.246 71.6797V74.6934H113.851V68.7123H115.2V69.4542C115.432 69.176 115.712 68.9905 116.037 68.8514C116.363 68.7123 116.735 68.6196 117.154 68.6196C117.619 68.6196 117.991 68.7123 118.364 68.8514C118.736 68.9905 118.969 69.2687 119.201 69.5933C119.434 69.2687 119.759 69.0369 120.178 68.8514C120.55 68.666 121.016 68.5732 121.481 68.5732C122.132 68.666 122.737 68.8978 123.202 69.3151Z" fill="#0070B3"/>
<path d="M127.39 74.4152C126.924 74.1371 126.506 73.8125 126.227 73.3025C125.947 72.8389 125.808 72.3288 125.808 71.7261C125.808 71.1234 125.947 70.6134 126.227 70.1497C126.506 69.6861 126.878 69.3151 127.39 69.0833C127.855 68.8051 128.413 68.7124 129.018 68.7124C129.623 68.7124 130.181 68.8515 130.693 69.0833C131.158 69.3615 131.577 69.6861 131.856 70.1497C132.135 70.6134 132.275 71.1234 132.275 71.7261C132.275 72.3288 132.135 72.8389 131.856 73.3025C131.577 73.7661 131.205 74.1371 130.693 74.4152C130.181 74.6934 129.67 74.7862 129.018 74.7862C128.413 74.7862 127.855 74.6471 127.39 74.4152ZM130.274 73.0707C130.6 72.7461 130.786 72.2825 130.786 71.7261C130.786 71.1697 130.6 70.7061 130.274 70.3815C129.949 70.057 129.53 69.8715 128.972 69.8715C128.413 69.8715 128.041 70.057 127.715 70.3815C127.39 70.7061 127.204 71.1697 127.204 71.7261C127.204 72.2825 127.39 72.7461 127.715 73.0707C128.041 73.3952 128.46 73.5807 128.972 73.5807C129.483 73.5807 129.949 73.4416 130.274 73.0707Z" fill="#0070B3"/>
<path d="M134.602 74.6007C134.136 74.4616 133.764 74.3225 133.485 74.1371L134.043 73.0707C134.322 73.2561 134.648 73.3952 135.02 73.488C135.392 73.5807 135.765 73.6734 136.137 73.6734C136.974 73.6734 137.393 73.4416 137.393 73.0243C137.393 72.7925 137.3 72.6534 137.067 72.607C136.835 72.5143 136.509 72.4679 136.044 72.3752C135.532 72.2825 135.16 72.2361 134.834 72.097C134.508 72.0043 134.276 71.8188 134.043 71.587C133.811 71.3552 133.717 70.9843 133.717 70.567C133.717 70.0106 133.95 69.547 134.415 69.2224C134.881 68.8979 135.532 68.7124 136.323 68.7124C136.742 68.7124 137.16 68.7588 137.579 68.8515C137.998 68.9442 138.324 69.0833 138.603 69.2224L138.044 70.2888C137.533 70.0106 136.974 69.8252 136.323 69.8252C135.904 69.8252 135.579 69.8715 135.392 70.0106C135.16 70.1497 135.067 70.2888 135.067 70.5206C135.067 70.7524 135.16 70.8915 135.392 70.9843C135.625 71.077 135.997 71.1697 136.463 71.2625C136.928 71.3552 137.347 71.4016 137.626 71.5406C137.951 71.6334 138.184 71.8188 138.417 72.0507C138.649 72.2825 138.742 72.607 138.742 73.0243C138.742 73.5807 138.51 74.0443 137.998 74.3689C137.533 74.6934 136.835 74.8789 135.997 74.8789C135.532 74.7862 135.067 74.7398 134.602 74.6007Z" fill="#0070B3"/>
<path d="M148.653 69.3151C149.118 69.7324 149.35 70.3815 149.35 71.216V74.7397H148.001V73.9979C147.815 74.2761 147.582 74.4615 147.257 74.6006C146.931 74.7397 146.559 74.7861 146.094 74.7861C145.628 74.7861 145.256 74.6934 144.93 74.5543C144.605 74.4152 144.326 74.1834 144.14 73.9052C143.953 73.627 143.86 73.3024 143.86 72.9779C143.86 72.4215 144.046 72.0042 144.465 71.6797C144.884 71.3551 145.489 71.1697 146.373 71.1697H147.908V71.0769C147.908 70.6597 147.769 70.3351 147.536 70.1033C147.303 69.8715 146.931 69.7787 146.419 69.7787C146.094 69.7787 145.768 69.8251 145.442 69.9178C145.117 70.0105 144.837 70.1496 144.605 70.3351L144.046 69.3151C144.372 69.0833 144.744 68.8978 145.163 68.7587C145.582 68.6196 146.094 68.5732 146.559 68.5732C147.489 68.666 148.187 68.8978 148.653 69.3151ZM147.35 73.5343C147.629 73.3952 147.815 73.1633 147.908 72.8388V72.1433H146.466C145.675 72.1433 145.256 72.4215 145.256 72.9315C145.256 73.1633 145.349 73.3952 145.582 73.5343C145.768 73.6734 146.047 73.7661 146.419 73.7661C146.745 73.7661 147.071 73.7197 147.35 73.5343Z" fill="#0070B3"/>
<path d="M151.77 66.394H153.166V74.6933H151.77V66.394Z" fill="#0070B3"/>
<path d="M155.678 67.5069C155.492 67.3678 155.399 67.136 155.399 66.9041C155.399 66.6723 155.492 66.4869 155.678 66.3014C155.864 66.1623 156.05 66.0696 156.329 66.0696C156.609 66.0696 156.795 66.1623 156.981 66.3014C157.167 66.4405 157.26 66.626 157.26 66.8578C157.26 67.0896 157.167 67.3214 157.027 67.4605C156.888 67.5996 156.655 67.6923 156.376 67.6923C156.097 67.7387 155.864 67.6923 155.678 67.5069ZM155.632 68.7587H157.027V74.7398H155.632V68.7587Z" fill="#0070B3"/>
<path d="M168.845 69.3151C169.31 69.7324 169.496 70.4278 169.496 71.2624V74.6934H168.101V71.4479C168.101 70.9378 168.008 70.5206 167.775 70.2887C167.542 70.0106 167.217 69.8715 166.751 69.8715C166.286 69.8715 165.914 70.0105 165.635 70.3351C165.356 70.6597 165.216 71.0769 165.216 71.6797V74.6934H163.82V71.4479C163.82 70.9378 163.727 70.5206 163.494 70.2887C163.262 70.0106 162.936 69.8715 162.471 69.8715C162.006 69.8715 161.633 70.0105 161.308 70.3351C160.982 70.6597 160.889 71.0769 160.889 71.6797V74.6934H159.493V68.7123H160.842V69.4542C161.075 69.176 161.354 68.9905 161.68 68.8514C162.006 68.7123 162.378 68.6196 162.797 68.6196C163.262 68.6196 163.634 68.7123 164.006 68.8514C164.378 68.9905 164.611 69.2687 164.844 69.5933C165.076 69.2687 165.402 69.0369 165.821 68.8514C166.193 68.666 166.658 68.5732 167.124 68.5732C167.821 68.666 168.426 68.8978 168.845 69.3151Z" fill="#0070B3"/>
<path d="M177.639 72.1897H172.94C173.033 72.6534 173.219 72.9779 173.591 73.2561C173.963 73.5343 174.382 73.6271 174.894 73.6271C175.545 73.6271 176.103 73.3952 176.522 72.9779L177.266 73.8589C176.987 74.1834 176.662 74.4152 176.243 74.6007C175.824 74.7862 175.359 74.8325 174.847 74.8325C174.196 74.8325 173.591 74.6934 173.126 74.4616C172.66 74.2298 172.242 73.8589 171.962 73.3489C171.683 72.8852 171.544 72.3752 171.544 71.7725C171.544 71.1697 171.683 70.6597 171.962 70.1961C172.242 69.7324 172.614 69.3615 173.079 69.0833C173.544 68.8051 174.103 68.7124 174.661 68.7124C175.266 68.7124 175.778 68.8515 176.243 69.0833C176.708 69.3615 177.08 69.6861 177.313 70.1497C177.592 70.6134 177.685 71.1697 177.685 71.7725C177.639 71.8652 177.639 72.0043 177.639 72.1897ZM173.451 70.1961C173.126 70.4743 172.939 70.7988 172.893 71.2625H176.289C176.243 70.8452 176.057 70.4743 175.731 70.1961C175.405 69.9179 175.033 69.7788 174.568 69.7788C174.149 69.7788 173.777 69.9179 173.451 70.1961Z" fill="#0070B3"/>
<path d="M184.85 69.3151C185.316 69.7787 185.548 70.4278 185.548 71.2624V74.6934H184.152V71.4479C184.152 70.9379 184.013 70.5206 183.78 70.2888C183.548 70.0106 183.175 69.8715 182.71 69.8715C182.198 69.8715 181.78 70.0106 181.5 70.3351C181.221 70.6597 181.035 71.077 181.035 71.6797V74.6934H179.639V68.7124H180.989V69.5006C181.221 69.2224 181.5 69.0369 181.873 68.8515C182.245 68.7124 182.617 68.6196 183.082 68.6196C183.78 68.666 184.385 68.8978 184.85 69.3151Z" fill="#0070B3"/>
<path d="M191.55 74.4152C191.364 74.5543 191.178 74.647 190.945 74.7397C190.713 74.7861 190.48 74.8324 190.201 74.8324C189.55 74.8324 189.038 74.647 188.666 74.3224C188.293 73.9979 188.107 73.4879 188.107 72.8388V69.9642H187.13V68.8514H188.107V67.5068H189.503V68.8514H191.131V69.9642H189.503V72.7924C189.503 73.0706 189.596 73.3024 189.736 73.4415C189.875 73.5806 190.061 73.6733 190.34 73.6733C190.666 73.6733 190.899 73.5806 191.131 73.4415L191.55 74.4152Z" fill="#0070B3"/>
<path d="M193.365 67.5069C193.179 67.3678 193.085 67.136 193.085 66.9041C193.085 66.6723 193.179 66.4869 193.365 66.3014C193.551 66.1623 193.737 66.0696 194.016 66.0696C194.295 66.0696 194.481 66.1623 194.667 66.3014C194.853 66.4405 194.947 66.626 194.947 66.8578C194.947 67.0896 194.853 67.3214 194.714 67.4605C194.574 67.5996 194.342 67.6923 194.063 67.6923C193.783 67.7387 193.551 67.6923 193.365 67.5069ZM193.318 68.7587H194.714V74.7398H193.318V68.7587Z" fill="#0070B3"/>
<path d="M198.25 74.4152C197.738 74.1371 197.366 73.8125 197.087 73.3025C196.808 72.8389 196.668 72.3288 196.668 71.7261C196.668 71.1234 196.808 70.6134 197.087 70.1497C197.366 69.6861 197.738 69.3151 198.25 69.0833C198.762 68.8051 199.32 68.7124 199.925 68.7124C200.53 68.7124 201.041 68.8515 201.46 69.0833C201.925 69.3151 202.251 69.6861 202.484 70.1033L201.414 70.7524C201.228 70.4743 201.041 70.2888 200.762 70.1497C200.483 70.0106 200.204 69.9642 199.925 69.9642C199.413 69.9642 198.948 70.1497 198.622 70.4743C198.296 70.7988 198.11 71.2625 198.11 71.8188C198.11 72.3752 198.296 72.8389 198.622 73.1634C198.948 73.488 199.413 73.6734 199.925 73.6734C200.251 73.6734 200.53 73.6271 200.762 73.488C200.995 73.3489 201.228 73.1634 201.414 72.8852L202.484 73.5343C202.251 73.998 201.925 74.3225 201.46 74.5543C200.995 74.7862 200.483 74.9253 199.925 74.9253C199.32 74.7862 198.762 74.6471 198.25 74.4152Z" fill="#0070B3"/>
<path d="M204.391 67.5069C204.205 67.3678 204.112 67.136 204.112 66.9041C204.112 66.6723 204.205 66.4869 204.391 66.3014C204.578 66.1623 204.764 66.0696 205.043 66.0696C205.322 66.0696 205.508 66.1623 205.694 66.3014C205.88 66.4405 205.973 66.626 205.973 66.8578C205.973 67.0896 205.88 67.3214 205.741 67.4605C205.601 67.5996 205.369 67.6923 205.089 67.6923C204.764 67.7387 204.578 67.6923 204.391 67.5069ZM204.345 68.7587H205.741V74.7398H204.345V68.7587Z" fill="#0070B3"/>
<path d="M209.23 74.4152C208.765 74.1371 208.346 73.8125 208.067 73.3025C207.788 72.8389 207.648 72.3288 207.648 71.7261C207.648 71.1234 207.788 70.6134 208.067 70.1497C208.346 69.6861 208.719 69.3151 209.23 69.0833C209.696 68.8051 210.254 68.7124 210.859 68.7124C211.464 68.7124 212.022 68.8515 212.534 69.0833C212.999 69.3615 213.418 69.6861 213.697 70.1497C213.976 70.6134 214.116 71.1234 214.116 71.7261C214.116 72.3288 213.976 72.8389 213.697 73.3025C213.418 73.7661 213.046 74.1371 212.534 74.4152C212.022 74.6934 211.51 74.7862 210.859 74.7862C210.3 74.7862 209.742 74.6471 209.23 74.4152ZM212.162 73.0707C212.487 72.7461 212.673 72.2825 212.673 71.7261C212.673 71.1697 212.487 70.7061 212.162 70.3815C211.836 70.057 211.417 69.8715 210.859 69.8715C210.3 69.8715 209.928 70.057 209.603 70.3815C209.277 70.7061 209.091 71.1697 209.091 71.7261C209.091 72.2825 209.277 72.7461 209.603 73.0707C209.928 73.3952 210.347 73.5807 210.859 73.5807C211.371 73.5807 211.836 73.4416 212.162 73.0707Z" fill="#0070B3"/>
<path d="M216.488 74.6007C216.023 74.4616 215.651 74.3225 215.372 74.1371L215.93 73.0707C216.209 73.2561 216.535 73.3952 216.907 73.488C217.279 73.5807 217.652 73.6734 218.024 73.6734C218.861 73.6734 219.28 73.4416 219.28 73.0243C219.28 72.7925 219.187 72.6534 218.954 72.607C218.722 72.5143 218.396 72.4679 217.931 72.3752C217.419 72.2825 217.047 72.2361 216.721 72.097C216.395 72.0043 216.163 71.8188 215.93 71.587C215.698 71.3552 215.604 70.9843 215.604 70.567C215.604 70.0106 215.837 69.547 216.302 69.2224C216.768 68.8979 217.419 68.7124 218.21 68.7124C218.629 68.7124 219.047 68.7588 219.466 68.8515C219.885 68.9442 220.211 69.0833 220.49 69.2224L219.931 70.2888C219.42 70.0106 218.861 69.8252 218.21 69.8252C217.791 69.8252 217.466 69.8715 217.279 70.0106C217.047 70.1497 216.954 70.2888 216.954 70.5206C216.954 70.7524 217.047 70.8915 217.279 70.9843C217.512 71.077 217.884 71.1697 218.35 71.2625C218.815 71.3552 219.234 71.4016 219.513 71.5406C219.838 71.6334 220.071 71.8188 220.304 72.0507C220.536 72.2825 220.629 72.607 220.629 73.0243C220.629 73.5807 220.397 74.0443 219.885 74.3689C219.42 74.6934 218.722 74.8789 217.884 74.8789C217.419 74.7862 216.954 74.7398 216.488 74.6007Z" fill="#0070B3"/>
<path d="M227.236 74.4152C226.771 74.1371 226.352 73.8125 226.073 73.3025C225.794 72.8389 225.654 72.3288 225.654 71.7261C225.654 71.1234 225.794 70.6134 226.073 70.1497C226.352 69.6861 226.724 69.3151 227.236 69.0833C227.701 68.8051 228.26 68.7124 228.865 68.7124C229.469 68.7124 230.028 68.8515 230.54 69.0833C231.005 69.3615 231.424 69.6861 231.703 70.1497C231.982 70.6134 232.121 71.1234 232.121 71.7261C232.121 72.3288 231.982 72.8389 231.703 73.3025C231.424 73.7661 231.051 74.1371 230.54 74.4152C230.074 74.6934 229.516 74.7862 228.865 74.7862C228.26 74.7862 227.748 74.6471 227.236 74.4152ZM230.167 73.0707C230.493 72.7461 230.679 72.2825 230.679 71.7261C230.679 71.1697 230.493 70.7061 230.167 70.3815C229.842 70.057 229.423 69.8715 228.865 69.8715C228.306 69.8715 227.934 70.057 227.608 70.3815C227.283 70.7061 227.097 71.1697 227.097 71.7261C227.097 72.2825 227.283 72.7461 227.608 73.0707C227.934 73.3952 228.353 73.5807 228.865 73.5807C229.376 73.5807 229.842 73.4416 230.167 73.0707Z" fill="#0070B3"/>
<path d="M237.519 68.666V70.0106C237.379 70.0106 237.286 69.9642 237.193 69.9642C236.635 69.9642 236.216 70.1033 235.89 70.4279C235.564 70.7524 235.425 71.2161 235.425 71.8188V74.7398H234.029V68.7587H235.378V69.6397C235.797 68.9906 236.495 68.666 237.519 68.666Z" fill="#0070B3"/>
<path d="M239.426 67.5069C239.24 67.3678 239.147 67.136 239.147 66.9041C239.147 66.6723 239.24 66.4869 239.426 66.3014C239.612 66.1623 239.798 66.0696 240.078 66.0696C240.357 66.0696 240.543 66.1623 240.729 66.3014C240.915 66.4405 241.008 66.626 241.008 66.8578C241.008 67.0896 240.915 67.3214 240.775 67.4605C240.636 67.5996 240.403 67.6923 240.124 67.6923C239.798 67.7387 239.566 67.6923 239.426 67.5069ZM239.333 68.7587H240.729V74.7398H239.333V68.7587Z" fill="#0070B3"/>
<path d="M248.824 72.1897H244.125C244.218 72.6534 244.404 72.9779 244.777 73.2561C245.149 73.5343 245.568 73.6271 246.079 73.6271C246.731 73.6271 247.289 73.3952 247.708 72.9779L248.452 73.8589C248.173 74.1834 247.847 74.4152 247.429 74.6007C247.01 74.7862 246.545 74.8325 246.033 74.8325C245.382 74.8325 244.777 74.6934 244.311 74.4616C243.846 74.2298 243.427 73.8589 243.148 73.3489C242.869 72.8852 242.729 72.3752 242.729 71.7725C242.729 71.1697 242.869 70.6597 243.148 70.1961C243.427 69.7324 243.8 69.3615 244.265 69.0833C244.73 68.8051 245.288 68.7124 245.847 68.7124C246.452 68.7124 246.963 68.8515 247.429 69.0833C247.894 69.3615 248.266 69.6861 248.499 70.1497C248.778 70.6134 248.871 71.1697 248.871 71.7725C248.871 71.8652 248.824 72.0043 248.824 72.1897ZM244.684 70.1961C244.358 70.4743 244.172 70.7988 244.125 71.2625H247.522C247.475 70.8452 247.289 70.4743 246.963 70.1961C246.638 69.9179 246.266 69.7788 245.8 69.7788C245.382 69.7788 245.009 69.9179 244.684 70.1961Z" fill="#0070B3"/>
<path d="M256.036 69.3151C256.501 69.7787 256.734 70.4278 256.734 71.2624V74.6934H255.338V71.4479C255.338 70.9379 255.199 70.5206 254.966 70.2888C254.733 70.0106 254.361 69.8715 253.896 69.8715C253.384 69.8715 252.965 70.0106 252.686 70.3351C252.407 70.6597 252.221 71.077 252.221 71.6797V74.6934H250.825V68.7124H252.174V69.5006C252.407 69.2224 252.686 69.0369 253.058 68.8515C253.431 68.7124 253.803 68.6196 254.268 68.6196C254.966 68.666 255.571 68.8978 256.036 69.3151Z" fill="#0070B3"/>
<path d="M262.736 74.4152C262.55 74.5543 262.364 74.647 262.131 74.7397C261.898 74.7861 261.666 74.8324 261.387 74.8324C260.735 74.8324 260.224 74.647 259.851 74.3224C259.479 73.9979 259.293 73.4879 259.293 72.8388V69.9642H258.316V68.8514H259.293V67.5068H260.689V68.8514H262.317V69.9642H260.689V72.7924C260.689 73.0706 260.782 73.3024 260.921 73.4415C261.061 73.5806 261.247 73.6733 261.526 73.6733C261.852 73.6733 262.085 73.5806 262.317 73.4415L262.736 74.4152Z" fill="#0070B3"/>
<path d="M268.831 69.3151C269.296 69.7324 269.529 70.3815 269.529 71.216V74.7397H268.179V73.9979C267.993 74.2761 267.761 74.4615 267.435 74.6006C267.109 74.7397 266.737 74.7861 266.272 74.7861C265.807 74.7861 265.434 74.6934 265.109 74.5543C264.783 74.4152 264.504 74.1834 264.318 73.9052C264.132 73.627 264.039 73.3024 264.039 72.9779C264.039 72.4215 264.225 72.0042 264.643 71.6797C265.062 71.3551 265.667 71.1697 266.551 71.1697H268.086V71.0769C268.086 70.6597 267.947 70.3351 267.714 70.1033C267.482 69.8715 267.109 69.7787 266.598 69.7787C266.272 69.7787 265.946 69.8251 265.62 69.9178C265.295 70.0105 265.016 70.1496 264.783 70.3351L264.225 69.3151C264.55 69.0833 264.923 68.8978 265.341 68.7587C265.76 68.6196 266.272 68.5732 266.737 68.5732C267.714 68.666 268.366 68.8978 268.831 69.3151ZM267.575 73.5343C267.854 73.3952 268.04 73.1633 268.133 72.8388V72.1433H266.691C265.9 72.1433 265.481 72.4215 265.481 72.9315C265.481 73.1633 265.574 73.3952 265.807 73.5343C265.993 73.6734 266.272 73.7661 266.644 73.7661C266.97 73.7661 267.295 73.7197 267.575 73.5343Z" fill="#0070B3"/>
<path d="M271.948 66.394H273.344V74.6933H271.948V66.394Z" fill="#0070B3"/>
<path d="M281.44 72.1897H276.741C276.834 72.6534 277.02 72.9779 277.392 73.2561C277.764 73.5343 278.183 73.6271 278.695 73.6271C279.346 73.6271 279.904 73.3952 280.323 72.9779L281.067 73.8589C280.788 74.1834 280.463 74.4152 280.044 74.6007C279.625 74.7862 279.16 74.8325 278.648 74.8325C277.997 74.8325 277.392 74.6934 276.927 74.4616C276.461 74.2298 276.043 73.8589 275.763 73.3489C275.484 72.8852 275.345 72.3752 275.345 71.7725C275.345 71.1697 275.484 70.6597 275.763 70.1961C276.043 69.7324 276.415 69.3615 276.88 69.0833C277.345 68.8051 277.904 68.7124 278.462 68.7124C279.067 68.7124 279.579 68.8515 280.044 69.0833C280.509 69.3615 280.881 69.6861 281.114 70.1497C281.393 70.6134 281.486 71.1697 281.486 71.7725C281.486 71.8652 281.486 72.0043 281.44 72.1897ZM277.299 70.1961C276.973 70.4743 276.787 70.7988 276.741 71.2625H280.137C280.09 70.8452 279.904 70.4743 279.579 70.1961C279.253 69.9179 278.881 69.7788 278.416 69.7788C277.997 69.7788 277.625 69.9179 277.299 70.1961Z" fill="#0070B3"/>
<path d="M283.859 74.6007C283.394 74.4616 283.022 74.3225 282.742 74.1371L283.301 73.0707C283.58 73.2561 283.906 73.3952 284.278 73.488C284.65 73.5807 285.022 73.6734 285.394 73.6734C286.232 73.6734 286.651 73.4416 286.651 73.0243C286.651 72.7925 286.558 72.6534 286.325 72.607C286.092 72.5143 285.767 72.4679 285.301 72.3752C284.79 72.2825 284.417 72.2361 284.092 72.097C283.766 72.0043 283.533 71.8188 283.301 71.587C283.068 71.3552 282.975 70.9843 282.975 70.567C282.975 70.0106 283.208 69.547 283.673 69.2224C284.138 68.8979 284.79 68.7124 285.581 68.7124C285.999 68.7124 286.418 68.7588 286.837 68.8515C287.256 68.9442 287.581 69.0833 287.86 69.2224L287.302 70.2888C286.79 70.0106 286.232 69.8252 285.581 69.8252C285.162 69.8252 284.836 69.8715 284.65 70.0106C284.417 70.1497 284.324 70.2888 284.324 70.5206C284.324 70.7524 284.417 70.8915 284.65 70.9843C284.883 71.077 285.255 71.1697 285.72 71.2625C286.185 71.3552 286.604 71.4016 286.883 71.5406C287.209 71.6334 287.442 71.8188 287.674 72.0507C287.907 72.2825 288 72.607 288 73.0243C288 73.5807 287.767 74.0443 287.256 74.3689C286.79 74.6934 286.092 74.8789 285.255 74.8789C284.79 74.7862 284.324 74.7398 283.859 74.6007Z" fill="#0070B3"/>
<path d="M112.315 61.1085L103.103 49.9346L93.9839 61.1085H86.8188L99.4276 46.0864L87.5167 31.667H94.6353L103.289 42.099L111.85 31.6206H118.69L106.825 45.8545L119.574 61.1085H112.315Z" fill="#0070B3"/>
<path d="M122.179 31.6206H128.46V61.1085H122.179V31.6206Z" fill="#0070B3"/>
<path d="M166.519 31.6206V61.1085H161.355L142.651 41.1717V61.1085H136.416V31.6206H141.581L160.284 51.5574V31.6206H166.519Z" fill="#0070B3"/>
<path d="M172.381 61.1085H169.729L182.478 45.8546L170.613 31.6206H177.453L186.014 42.099L195.738 30.0442C197.273 28.1433 199.599 27.0769 202.065 27.0769H205.322L189.875 46.04L202.484 61.0621H195.319L186.2 49.8883L179.919 57.5384C178.058 59.8103 175.312 61.1085 172.381 61.1085Z" fill="#0070B3"/>
<path d="M205.648 31.6206H211.929V61.1085H205.648V31.6206Z" fill="#0070B3"/>
<path d="M250.034 31.6206V61.1085H244.87L226.166 41.1717V61.1085H219.932V31.6206H225.096L243.8 51.5574V31.6206H250.034Z" fill="#0070B3"/>
<path d="M286.511 46.0401H273.53V50.5838H281.068V55.2203C279.067 56.2403 276.741 56.7503 274.089 56.7503C271.716 56.7503 269.622 56.2867 267.761 55.4057C265.9 54.5248 264.458 53.273 263.388 51.6966C262.317 50.1202 261.806 48.3583 261.806 46.411C261.806 44.371 262.317 42.6091 263.388 41.0327C264.458 39.4563 265.9 38.2508 267.761 37.3699C269.622 36.489 271.762 36.0717 274.135 36.0717C277.764 36.0717 280.882 37.1844 283.487 39.4563L287.442 36.0717C285.86 34.4953 283.906 33.2898 281.579 32.5016C279.253 31.6671 276.694 31.2961 273.81 31.2961C270.32 31.2961 267.203 31.9452 264.411 33.2435C261.62 34.5417 259.433 36.3499 257.851 38.6681C256.269 40.9863 255.478 43.5828 255.478 46.4574C255.478 49.332 256.269 51.9284 257.851 54.2466C259.433 56.5648 261.62 58.3731 264.411 59.6713C267.203 60.9695 270.32 61.6186 273.763 61.6186C276.229 61.6186 278.602 61.294 280.928 60.6449C283.254 59.9958 285.302 59.0685 287.023 57.8631V46.0401H286.511Z" fill="#0070B3"/>
<path d="M31.0797 27.3551C30.9866 27.726 30.754 27.9579 30.3353 28.0042L0.604736 29.2561L20.8904 35.7471L35.6393 34.8198C36.058 34.7734 36.3837 34.4953 36.4768 34.1243L40.8038 18.9631C40.8968 18.314 40.9433 17.6649 41.0364 17.0158L40.4781 0L31.0797 27.3551Z" fill="#E51A2F"/>
<path d="M25.4966 49.5637L33.5922 46.5963V46.5036L19.4481 36.9061L0 30.5542C0 30.5542 25.4501 49.5173 25.4966 49.5637Z" fill="#E51A2F"/>
<path d="M51.412 27.4015L46.8989 34.4953L63.8812 33.8926L82.3057 26.2424L51.412 27.4015Z" fill="#0070B3"/>
<path d="M62.8111 35.9326L50.6211 46.0865L50.7141 46.1792L58.9959 48.5438C59.0889 48.4511 82.678 27.7725 82.678 27.7725L62.8111 35.9326Z" fill="#E51A2F"/>
<path d="M33.6389 48.2656L25.5433 51.2793L14.0046 87.2582L29.2189 63.2414L33.6389 48.2656Z" fill="#0070B3"/>
<path d="M57.1349 64.6323L42.7117 54.8494L30.0564 64.215L15.0283 88L43.0374 63.2414L66.3007 77.7998L57.1349 64.6323Z" fill="#0070B3"/>
</g>
<defs>
<clipPath id="clip0_302_992">
<rect width="288" height="88" fill="white"/>
</clipPath>
</defs>
</svg>
