<svg width="100" height="100" viewBox="0 0 100 100" fill="none" xmlns="http://www.w3.org/2000/svg">
<g clip-path="url(#clip0_321_260)">
<path d="M2.13403 49.4016C2.13169 57.8035 4.34419 66.0074 8.55122 73.2384L1.73169 97.9446L27.2129 91.3151C34.2607 95.1221 42.1572 97.117 50.1817 97.1175H50.2028C76.693 97.1175 98.2567 75.7287 98.268 49.4392C98.2731 36.7 93.2778 24.7209 84.202 15.7085C75.1278 6.6969 63.0594 1.7314 50.2008 1.72559C23.7075 1.72559 2.14536 23.1132 2.13442 49.4016" fill="url(#paint0_linear_321_260)"/>
<path d="M0.417969 49.386C0.415234 58.0903 2.70703 66.5876 7.06406 74.0775L0 99.6694L26.3949 92.8023C33.6676 96.7368 41.8559 98.8112 50.1879 98.8143H50.2094C77.65 98.8143 99.9883 76.6562 100 49.4256C100.005 36.2287 94.8297 23.819 85.4297 14.4837C76.0285 5.14961 63.5285 0.00542636 50.2094 0C22.7641 0 0.429297 22.155 0.418359 49.386H0.417969ZM16.1367 72.7876L15.1512 71.2353C11.0082 64.6988 8.82148 57.1454 8.82461 49.3891C8.83359 26.7554 27.3977 8.34109 50.225 8.34109C61.2797 8.34574 71.6687 12.6217 79.4828 20.3798C87.2965 28.1388 91.5961 38.4527 91.5934 49.4225C91.5832 72.0562 73.0187 90.4729 50.2094 90.4729H50.193C42.766 90.469 35.482 88.4899 29.1297 84.75L27.618 83.8605L11.9547 87.9353L16.1367 72.7872V72.7876Z" fill="url(#paint1_linear_321_260)"/>
<path d="M37.7649 28.7393C36.8329 26.6839 35.852 26.6424 34.9657 26.6064C34.2399 26.5753 33.4102 26.5777 32.5813 26.5777C31.7516 26.5777 30.4036 26.8874 29.2641 28.1219C28.1235 29.3575 24.9094 32.3436 24.9094 38.4168C24.9094 44.4905 29.3676 50.3598 29.9891 51.1843C30.6114 52.0071 38.5957 64.8691 51.2411 69.8172C61.7504 73.9292 63.8891 73.1114 66.17 72.9052C68.4512 72.6998 73.5309 69.9199 74.5672 67.0374C75.6043 64.1552 75.6043 61.6847 75.2934 61.1684C74.9825 60.654 74.1528 60.3451 72.9086 59.7281C71.6641 59.1106 65.5477 56.1242 64.4075 55.7122C63.2668 55.3005 62.4375 55.0951 61.6079 56.3312C60.7782 57.5653 58.3958 60.3451 57.6696 61.1684C56.9442 61.9936 56.218 62.0963 54.9743 61.4788C53.7293 60.8595 49.7227 59.5575 44.9692 55.3525C41.2708 52.0804 38.7739 48.0397 38.0481 46.8036C37.3223 45.5695 37.9704 44.9005 38.5942 44.2854C39.1532 43.7323 39.8387 42.844 40.4614 42.1234C41.0817 41.4025 41.2887 40.8881 41.7036 40.0649C42.1188 39.2409 41.911 38.5199 41.6004 37.9025C41.2887 37.285 38.8711 31.1804 37.7649 28.7397" fill="white"/>
</g>
<defs>
<linearGradient id="paint0_linear_321_260" x1="49.9999" y1="97.9446" x2="49.9999" y2="1.72559" gradientUnits="userSpaceOnUse">
<stop stop-color="#1FAF38"/>
<stop offset="1" stop-color="#60D669"/>
</linearGradient>
<linearGradient id="paint1_linear_321_260" x1="50" y1="99.6694" x2="50" y2="0" gradientUnits="userSpaceOnUse">
<stop stop-color="#F9F9F9"/>
<stop offset="1" stop-color="white"/>
</linearGradient>
<clipPath id="clip0_321_260">
<rect width="100" height="100" fill="white"/>
</clipPath>
</defs>
</svg>
