<svg width="67" height="67" viewBox="0 0 67 67" fill="none" xmlns="http://www.w3.org/2000/svg">
<path d="M43.4523 27.1243L43.4523 27.6221L43.4523 27.1243C43.1574 27.1243 42.8746 27.2414 42.6661 27.45C42.4575 27.6585 42.3404 27.9413 42.3404 28.2363C42.3404 28.5312 42.4575 28.814 42.6661 29.0225L45.9606 32.3171L29.6051 32.3163L29.605 32.3163C29.4589 32.3163 29.3142 32.345 29.1792 32.401C29.0442 32.4569 28.9215 32.5388 28.8182 32.6422C28.7149 32.7455 28.6329 32.8682 28.577 33.0032L29.0389 33.1945L28.577 33.0032C28.5211 33.1382 28.4923 33.2829 28.4923 33.429C28.4923 33.5751 28.5211 33.7198 28.577 33.8548C28.6329 33.9898 28.7149 34.1125 28.8182 34.2158C28.9215 34.3192 29.0442 34.4011 29.1792 34.457C29.3142 34.513 29.4589 34.5417 29.605 34.5417L29.6051 34.5417L45.9606 34.5409L42.6661 37.8355C42.4575 38.044 42.3404 38.3268 42.3404 38.6217L42.8404 38.6217L42.3404 38.6217C42.3404 38.9167 42.4575 39.1995 42.6661 39.408C42.8746 39.6166 43.1574 39.7337 43.4523 39.7337C43.7473 39.7337 44.0301 39.6166 44.2386 39.408L49.4314 34.2153C49.6399 34.0067 49.7571 33.7239 49.7571 33.429C49.7571 33.1341 49.6399 32.8512 49.4314 32.6427L44.2386 27.45C44.0301 27.2414 43.7473 27.1243 43.4523 27.1243Z" fill="#E51A2F" stroke="#E51A2F"/>
<circle cx="33.5" cy="33.5" r="33.5" fill="#C91A2C"/>
<circle cx="33.7046" cy="33.7043" r="27.5762" fill="#E51A2F"/>
<path d="M35.7561 33.165L43.0082 25.913C43.3523 25.5695 43.5459 25.1032 43.5464 24.6169C43.5468 24.1306 43.354 23.664 43.0104 23.3199C42.6669 22.9757 42.2007 22.7821 41.7143 22.7816C41.228 22.7812 40.7615 22.974 40.4173 23.3176L33.1653 30.5696L25.9133 23.3176C25.5691 22.9734 25.1023 22.78 24.6155 22.78C24.1288 22.78 23.662 22.9734 23.3178 23.3176C22.9736 23.6617 22.7803 24.1286 22.7803 24.6153C22.7803 25.102 22.9736 25.5688 23.3178 25.913L30.5698 33.165L23.3178 40.417C22.9736 40.7612 22.7803 41.228 22.7803 41.7148C22.7803 42.2015 22.9736 42.6683 23.3178 43.0125C23.662 43.3567 24.1288 43.55 24.6155 43.55C25.1023 43.55 25.5691 43.3567 25.9133 43.0125L33.1653 35.7605L40.4173 43.0125C40.7615 43.3567 41.2283 43.55 41.715 43.55C42.2018 43.55 42.6686 43.3567 43.0127 43.0125C43.3569 42.6683 43.5503 42.2015 43.5503 41.7148C43.5503 41.228 43.3569 40.7612 43.0127 40.417L35.7561 33.165Z" fill="#FEFEFE"/>
</svg>
