<svg width="130" height="131" viewBox="0 0 130 131" fill="none" xmlns="http://www.w3.org/2000/svg">
<g clip-path="url(#clip0_893_111)">
<path d="M64.9815 0.00292969C29.1061 0.00292969 -0.000976562 29.11 -0.000976562 64.9854C-0.000976562 100.861 29.1061 129.968 64.9815 129.968C100.857 129.968 129.964 100.861 129.964 64.9854C129.964 29.11 100.892 0.00292969 64.9815 0.00292969ZM78.483 78.4167H51.48V52.4308H78.483V78.4167Z" fill="#C91A2C"/>
<path d="M64.9821 11.0146C35.3139 11.0146 11.2217 35.0718 11.2217 64.7751C11.2217 94.4784 35.2789 118.536 64.9821 118.536C94.6854 118.536 118.743 94.4784 118.743 64.7751C118.743 35.0718 94.6854 11.0146 64.9821 11.0146ZM78.4836 78.4169H51.4806V52.4309H78.4836V78.4169Z" fill="#E51A2F"/>
<path d="M78.3773 52.501H51.5146V78.3817H78.3773V52.501Z" stroke="#C91A2C" stroke-width="5" stroke-miterlimit="10"/>
</g>
<path d="M40.8402 29.4819L41.7679 40.9551L40.0773 41.8647L31.0603 34.7534L32.9327 33.7509L39.7511 39.2391L39.0221 30.4108L40.8402 29.4819Z" fill="white"/>
<path d="M51.8434 33.2889L45.819 35.3141C46.0959 35.8593 46.5356 36.1839 47.0839 36.3616C47.6321 36.5392 48.2156 36.5157 48.9076 36.3452C49.7814 36.0819 50.3621 35.6021 50.7039 34.8324L52.0583 35.6052C51.8793 36.1544 51.5537 36.5954 51.0816 36.9282C50.6094 37.261 50.083 37.6673 49.391 37.8377C48.5171 38.1011 47.7518 38.2175 47.0218 38.1327C46.2917 38.048 45.6512 37.6886 45.0649 37.2558C44.5329 36.7494 44.1827 36.1502 43.8677 35.3499C43.626 34.6036 43.5852 33.8921 43.6719 33.1612C43.8318 32.4843 44.1194 31.7881 44.6268 31.2542C45.1342 30.7204 45.7339 30.3682 46.4802 30.1242C47.2264 29.8802 47.9375 29.8374 48.6675 29.9221C49.3433 30.0803 49.9648 30.3121 50.4969 30.8184C51.0289 31.3248 51.3791 31.924 51.6941 32.7244C51.7864 32.9061 51.7511 33.1072 51.8434 33.2889ZM45.7289 32.5221C45.4766 33.0172 45.3518 33.493 45.4469 34.131L49.797 32.6866C49.5201 32.1414 49.1347 31.7433 48.6597 31.6198C48.1848 31.4962 47.5822 31.3921 47.0178 31.5432C46.3991 31.7678 46.0545 32.0811 45.7289 32.5221Z" fill="white"/>
<path d="M57.5704 27.5247L57.8367 29.3112C57.7092 29.3306 57.5083 29.2958 57.3808 29.3152C56.6155 29.4316 56.1433 29.7644 55.7635 30.2789C55.3836 30.7934 55.3512 31.4508 55.4653 32.2164L56.1636 36.0252L54.3236 36.3702L52.9434 28.424L54.7291 28.1525L54.9003 29.3009C55.3506 28.3842 56.2407 27.7921 57.5704 27.5247Z" fill="white"/>
<path d="M77.3303 28.8265C77.8814 29.4605 78.0878 30.4078 77.9307 31.541L77.4485 36.1817L75.5324 36.0163L75.9984 31.7043C76.0851 30.9734 76.009 30.4629 75.6968 30.1189C75.4389 29.7014 75.0182 29.5043 74.4157 29.4002C73.759 29.3696 73.2488 29.4471 72.8499 29.834C72.451 30.2209 72.1445 30.7895 72.131 31.5746L71.7003 35.6855L69.7843 35.5201L70.2502 31.2081C70.3369 30.4771 70.2609 29.9667 69.9487 29.6227C69.6908 29.2052 69.2701 29.0081 68.6676 28.904C68.0108 28.8734 67.5006 28.9509 67.1017 29.3378C66.7029 29.7247 66.3963 30.2933 66.3829 31.0783L65.9522 35.1893L64.0362 35.0239L64.8623 27.0031L66.6508 27.1879L66.5479 28.2476C66.8925 27.9342 67.3104 27.6749 67.7473 27.5432C68.1842 27.4115 68.6944 27.3339 69.2969 27.4381C69.8994 27.5422 70.3744 27.6657 70.8684 27.9169C71.3081 28.2415 71.6202 28.5855 71.8781 29.0031C72.277 28.6162 72.6949 28.3569 73.2594 28.2058C73.8238 28.0547 74.334 27.9771 74.9908 28.0078C76.0655 27.7791 76.8336 28.1191 77.3303 28.8265Z" fill="white"/>
<path d="M87.0539 31.915C87.4232 32.6419 87.5021 33.6086 87.0707 34.6529L85.5111 39.066L83.7931 38.479L84.1159 37.5817C83.8255 37.8216 83.3886 37.9533 82.8784 38.0308C82.4225 38.0349 81.8933 37.9849 81.345 37.8072C80.7968 37.6296 80.3028 37.3785 79.9174 36.9803C79.6052 36.6363 79.3473 36.2188 79.2169 35.7819C79.0866 35.3449 79.1571 34.9427 79.2818 34.467C79.5693 33.7708 80.0225 33.3104 80.6412 33.0858C81.2599 32.8613 82.1175 32.9266 83.214 33.2819L85.2062 33.9577L85.2604 33.8842C85.4394 33.335 85.4366 32.8787 85.1787 32.4612C84.9208 32.0436 84.5544 31.7731 83.9329 31.5414C83.5122 31.3443 83.0562 31.3484 82.6003 31.3525C82.1444 31.3566 81.7617 31.4147 81.3248 31.5464L81.0965 30.0152C81.5877 29.81 82.1712 29.7865 82.828 29.8171C83.4847 29.8478 84.0872 29.9519 84.7088 30.1836C85.8785 30.593 86.6847 31.1882 87.0539 31.915ZM83.6001 36.7466C83.9827 36.6884 84.4006 36.4292 84.6177 36.1352L84.9404 35.2378L83.1491 34.5967C82.1259 34.2956 81.4882 34.3925 81.2007 35.0887C81.0569 35.4368 81.0949 35.6921 81.3338 35.982C81.5727 36.2719 81.8658 36.4883 82.3408 36.6119C82.7615 36.8089 83.2174 36.8048 83.6001 36.7466ZM86.7356 27.5918L88.801 28.3217L85.6341 29.3905L84.1169 28.8382L86.7356 27.5918Z" fill="white"/>
<path d="M88.015 40.1219C87.5563 39.6696 87.1708 39.2715 87.0405 38.8346L88.4027 37.9097C88.5873 38.2731 88.8995 38.6172 89.2849 39.0153C89.6704 39.4134 90.0368 39.684 90.5308 39.9351C91.5187 40.4374 92.1755 40.468 92.4278 39.9729C92.5906 39.7524 92.5525 39.4972 92.3137 39.2073C92.1481 38.9714 91.7816 38.7009 91.2686 38.3222C90.7556 37.9434 90.3159 37.6188 90.0038 37.2748C89.6916 36.9307 89.507 36.5673 89.3766 36.1304C89.2463 35.6935 89.371 35.2178 89.6233 34.7227C89.9841 34.0806 90.5105 33.6743 91.2758 33.5579C92.0411 33.4415 92.9178 33.6345 93.9057 34.1368C94.3997 34.3879 94.8394 34.7125 95.2791 35.0372C95.7189 35.3618 95.9768 35.7793 96.2889 36.1234L94.9267 37.0482C94.5032 36.3949 93.8979 35.8344 93.1841 35.421C92.6901 35.1698 92.3427 35.0269 91.9601 35.0851C91.6317 35.0698 91.3956 35.2362 91.2328 35.4567C91.07 35.6772 91.108 35.9324 91.3469 36.2223C91.5858 36.5122 91.9522 36.7828 92.411 37.235C92.924 37.6137 93.3637 37.9384 93.6759 38.2824C93.988 38.6264 94.1726 38.9899 94.3573 39.3533C94.4876 39.7902 94.4171 40.1924 94.1106 40.761C93.7498 41.4031 93.2233 41.8094 92.3847 41.8717C91.6194 41.988 90.6695 41.741 89.6816 41.2387C89.041 40.8794 88.4738 40.5741 88.015 40.1219Z" fill="white"/>
<path d="M75.326 102.513L83.6446 100.113C83.6844 99.7075 83.8501 99.2735 84.0158 98.8395L76.501 100.993L74.5172 94.0337L75.3983 93.8355L75.5903 94.3874L82.224 92.4322L82.032 91.8804L82.9616 91.6051L84.63 97.1806C85.1071 96.0814 85.7389 95.0798 86.651 94.1472C86.8342 94.3705 87.2206 94.6142 87.501 94.6833C86.1229 96.1835 85.2569 97.8991 84.7487 99.7325L88.293 98.7368L88.5424 99.5403L84.5719 100.698C84.4835 101.181 84.4437 101.586 84.3552 102.069L87.8222 101.025L88.0716 101.828L84.3529 102.929C84.3131 103.335 84.3505 103.789 84.3593 104.118C85.7152 103.681 87.1196 103.166 88.4269 102.806C88.4843 103.058 88.6675 103.281 88.8508 103.504C85.2579 104.577 80.8413 106.099 78.6705 107.315L77.7432 106.73C77.7432 106.73 77.7918 106.653 77.869 106.702L77.9949 106.674C79.2448 106.062 80.9982 105.337 82.9548 104.632C83.0034 104.555 83.052 104.478 83.1779 104.45C83.2177 104.044 83.1316 103.667 83.1715 103.261L76.964 105.054L76.7146 104.251L83.1738 102.401C83.2136 101.995 83.3021 101.513 83.3905 101.03L75.5754 103.317L75.326 102.513ZM76.8746 98.8591L77.1814 99.9141L83.815 97.959L83.5083 96.9039L76.8746 98.8591ZM83.2876 96.2263L82.9036 95.1225L76.2699 97.0777L76.6539 98.1814L83.2876 96.2263ZM82.4247 93.3128L75.7911 95.2679L76.1265 96.4487L82.7602 94.4936L82.4247 93.3128Z" fill="white"/>
<path d="M59.9856 99.9458L65.2012 99.8965C65.3781 98.931 65.7095 98.063 66.4471 97.2359C64.6212 96.192 62.0775 95.7725 58.6041 95.6282C58.7499 95.397 58.9928 95.0118 59.0326 94.6061C62.5833 94.7991 65.2043 95.2674 67.1362 96.4858C68.2029 95.6508 69.7046 94.9823 71.9702 94.4727C72.0762 94.6472 72.3168 95.122 72.5773 95.394C70.3602 95.8266 68.9072 96.418 67.9377 97.0989C68.6618 97.6633 69.1629 98.4102 69.6927 99.2828L68.8403 99.6068C68.4651 98.8316 67.8668 98.2389 67.2972 97.772C66.7053 98.368 66.4225 99.1589 66.3142 99.8445L70.9977 99.7827L71.0982 105.446L66.3374 105.459L66.3725 106.774L72.3521 106.883L72.3785 107.869L59.1118 108.011L59.0855 107.025L65.1624 106.98L65.1273 105.666L60.0375 105.687L59.9856 99.9458ZM70.0163 104.764L69.9725 103.121L66.1501 103.187L66.194 104.83L70.0163 104.764ZM69.9596 100.743L66.1859 100.733C66.1174 101.013 66.1748 101.264 66.1835 101.593L66.1812 102.453L70.0035 102.387L69.9596 100.743ZM61.0269 104.803L65.1297 104.805L65.0858 103.162L60.9831 103.16L61.0269 104.803ZM60.9703 100.782L61.0141 102.425L65.1169 102.428L65.1192 101.568C65.0619 101.316 65.1304 101.036 65.1216 100.708L60.9703 100.782Z" fill="white"/>
<path d="M44.7532 104.233L44.1549 103.641C44.2035 103.563 44.2808 103.612 44.3294 103.535C47.1431 100.786 52.0321 99.8849 56.1149 100.09C56.1723 100.342 56.2098 100.796 56.3444 101.097C54.3902 100.941 52.1158 101.122 50.1019 101.575C50.497 102.148 51.2013 102.915 51.8482 103.431L51.073 103.803C50.3489 103.239 49.5673 102.423 49.1722 101.851C47.9422 102.26 46.8181 102.843 45.8486 103.524L50.2382 104.785C51.5168 104.299 52.9985 103.833 54.7408 103.639C54.7982 103.891 55.0388 104.366 55.222 104.589C52.4441 104.883 50.0613 105.75 48.6943 106.719L47.4866 106.065C47.5352 105.988 47.661 105.959 47.8642 105.98C48.2131 105.769 48.562 105.558 48.9882 105.396L44.9277 104.128L44.7532 104.233ZM44.0919 98.4313L43.8887 98.4109C43.3964 97.9927 43.3191 97.9439 43.2904 97.8181C43.339 97.7411 43.4163 97.7898 43.4649 97.7128C46.4841 94.1243 51.6336 93.4948 56.5378 94.1107C56.5466 94.4393 56.584 94.8937 56.7673 95.117C54.3781 94.7949 51.9204 94.7527 49.6548 95.2624C50.1559 96.0092 50.8888 96.9022 51.6417 97.5924L50.7893 97.9164C50.0364 97.2262 49.1489 96.2357 48.6964 95.4118C47.2147 95.8774 45.9161 96.5662 44.9554 97.5758L49.4509 99.0109C50.9813 98.4683 52.7435 98.0719 54.8148 97.8704C54.8721 98.122 55.0354 98.5481 55.2187 98.7713C51.8799 98.9273 49.2454 99.8506 47.6267 100.876L46.4189 100.222C46.4675 100.145 46.5934 100.117 46.7965 100.137C47.1455 99.9263 47.6203 99.6872 48.0465 99.5252L44.0919 98.4313Z" fill="white"/>
<path d="M98.8987 62.7892L98.9452 65.9753L98.1671 65.9675L98.1206 62.7815L98.8987 62.7892Z" fill="white"/>
<path d="M27.6164 66.7495L27.64 63.5578L28.4181 63.5655L28.3944 66.7573L27.6164 66.7495Z" fill="white"/>
<defs>
<clipPath id="clip0_893_111">
<rect width="130" height="130" fill="white" transform="translate(-0.000976562 0.00292969)"/>
</clipPath>
</defs>
</svg>
