<svg width="335" height="102" viewBox="0 0 335 102" fill="none" xmlns="http://www.w3.org/2000/svg">
<g clip-path="url(#clip0_720_171)">
<path d="M100.879 77.5479H102.557V86.63H100.879V77.5479Z" fill="white"/>
<path d="M111.703 80.3425C112.244 80.8799 112.515 81.6323 112.515 82.5996V86.5764H110.891V82.8146C110.891 82.2234 110.729 81.7398 110.458 81.471C110.188 81.1486 109.755 80.9874 109.213 80.9874C108.618 80.9874 108.131 81.1486 107.806 81.5248C107.482 81.901 107.265 82.3846 107.265 83.0833V86.5764H105.642V79.6439H107.211V80.5574C107.482 80.235 107.806 80.02 108.239 79.8051C108.672 79.6439 109.105 79.5364 109.646 79.5364C110.458 79.5901 111.162 79.8588 111.703 80.3425Z" fill="white"/>
<path d="M115.816 86.4689C115.275 86.3077 114.842 86.1464 114.517 85.9315L115.167 84.6954C115.491 84.9104 115.87 85.0716 116.303 85.1791C116.736 85.2866 117.169 85.3941 117.602 85.3941C118.576 85.3941 119.063 85.1254 119.063 84.6417C119.063 84.373 118.955 84.2118 118.684 84.158C118.414 84.0505 118.035 83.9968 117.494 83.8893C116.898 83.7818 116.465 83.7281 116.087 83.5669C115.708 83.4594 115.437 83.2444 115.167 82.9757C114.896 82.707 114.788 82.2771 114.788 81.7934C114.788 81.1485 115.058 80.6111 115.599 80.235C116.141 79.8588 116.898 79.6438 117.818 79.6438C118.305 79.6438 118.793 79.6975 119.28 79.805C119.767 79.9125 120.146 80.0737 120.47 80.235L119.821 81.471C119.225 81.1485 118.576 80.9336 117.818 80.9336C117.331 80.9336 116.952 80.9873 116.736 81.1485C116.465 81.3098 116.357 81.471 116.357 81.7397C116.357 82.0084 116.465 82.1696 116.736 82.2771C117.007 82.3846 117.44 82.4921 117.981 82.5995C118.522 82.707 119.009 82.7608 119.334 82.922C119.713 83.0295 119.983 83.2444 120.254 83.5131C120.524 83.7818 120.633 84.158 120.633 84.6417C120.633 85.2866 120.362 85.824 119.767 86.2002C119.225 86.5764 118.414 86.7913 117.44 86.7913C116.898 86.6838 116.357 86.6301 115.816 86.4689Z" fill="white"/>
<path d="M129.508 79.6975V86.6301H127.939V85.7702C127.668 86.0927 127.343 86.3076 126.964 86.4688C126.586 86.6301 126.153 86.7375 125.72 86.7375C124.8 86.7375 124.042 86.4688 123.501 85.9852C122.96 85.4478 122.689 84.6954 122.689 83.6743V79.6975H124.313V83.4594C124.313 84.1043 124.475 84.5342 124.746 84.8566C125.016 85.1791 125.449 85.3403 125.936 85.3403C126.531 85.3403 126.964 85.1791 127.343 84.8029C127.668 84.4267 127.884 83.943 127.884 83.2444V79.7512H129.508V79.6975Z" fill="white"/>
<path d="M143.309 80.3425C143.85 80.8262 144.066 81.6323 144.066 82.5996V86.5765H142.443V82.8146C142.443 82.2235 142.335 81.7398 142.064 81.4711C141.793 81.1486 141.415 80.9874 140.873 80.9874C140.332 80.9874 139.899 81.1486 139.574 81.5248C139.25 81.901 139.087 82.3847 139.087 83.0833V86.5765H137.464V82.8146C137.464 82.2235 137.356 81.7398 137.085 81.4711C136.814 81.1486 136.436 80.9874 135.894 80.9874C135.353 80.9874 134.92 81.1486 134.541 81.5248C134.162 81.901 134.054 82.3847 134.054 83.0833V86.5765H132.431V79.6439H134V80.5037C134.271 80.1813 134.595 79.9663 134.974 79.8051C135.353 79.6439 135.786 79.5364 136.273 79.5364C136.814 79.5364 137.247 79.6439 137.68 79.8051C138.113 79.9663 138.384 80.2888 138.654 80.665C138.925 80.2888 139.304 80.0201 139.791 79.8051C140.224 79.5902 140.765 79.4827 141.306 79.4827C142.064 79.5901 142.767 79.8589 143.309 80.3425Z" fill="white"/>
<path d="M148.179 86.2539C147.638 85.9315 147.151 85.5553 146.826 84.9641C146.502 84.4267 146.339 83.8356 146.339 83.1369C146.339 82.4383 146.502 81.8472 146.826 81.3098C147.151 80.7724 147.584 80.3424 148.179 80.0737C148.721 79.7513 149.37 79.6438 150.074 79.6438C150.777 79.6438 151.427 79.805 152.022 80.0737C152.563 80.3962 153.05 80.7724 153.375 81.3098C153.7 81.8472 153.862 82.4383 153.862 83.1369C153.862 83.8356 153.7 84.4267 153.375 84.9641C153.05 85.5015 152.617 85.9315 152.022 86.2539C151.427 86.5764 150.831 86.6838 150.074 86.6838C149.37 86.6838 148.721 86.5226 148.179 86.2539ZM151.535 84.6954C151.914 84.3193 152.13 83.7818 152.13 83.1369C152.13 82.4921 151.914 81.9547 151.535 81.5785C151.156 81.2023 150.669 80.9873 150.019 80.9873C149.37 80.9873 148.937 81.2023 148.558 81.5785C148.179 81.9547 147.963 82.4921 147.963 83.1369C147.963 83.7818 148.179 84.3193 148.558 84.6954C148.937 85.0716 149.424 85.2866 150.019 85.2866C150.615 85.2866 151.156 85.1254 151.535 84.6954Z" fill="white"/>
<path d="M156.568 86.4689C156.027 86.3077 155.594 86.1464 155.269 85.9315L155.918 84.6954C156.243 84.9104 156.622 85.0716 157.055 85.1791C157.488 85.2866 157.921 85.3941 158.354 85.3941C159.328 85.3941 159.815 85.1254 159.815 84.6417C159.815 84.373 159.707 84.2118 159.436 84.158C159.166 84.0505 158.787 83.9968 158.246 83.8893C157.65 83.7818 157.217 83.7281 156.839 83.5669C156.46 83.4594 156.189 83.2444 155.918 82.9757C155.648 82.707 155.54 82.2771 155.54 81.7934C155.54 81.1485 155.81 80.6111 156.351 80.235C156.893 79.8588 157.65 79.6438 158.57 79.6438C159.057 79.6438 159.544 79.6975 160.032 79.805C160.519 79.9125 160.897 80.0737 161.222 80.235L160.573 81.471C159.977 81.1485 159.328 80.9336 158.57 80.9336C158.083 80.9336 157.704 80.9873 157.488 81.1485C157.217 81.3098 157.109 81.471 157.109 81.7397C157.109 82.0084 157.217 82.1696 157.488 82.2771C157.759 82.3846 158.191 82.4921 158.733 82.5995C159.274 82.707 159.761 82.7608 160.086 82.922C160.465 83.0295 160.735 83.2444 161.006 83.5131C161.276 83.7818 161.385 84.158 161.385 84.6417C161.385 85.2866 161.114 85.824 160.519 86.2002C159.977 86.5764 159.166 86.7913 158.191 86.7913C157.65 86.6838 157.109 86.6301 156.568 86.4689Z" fill="white"/>
<path d="M172.912 80.3425C173.453 80.8262 173.724 81.5786 173.724 82.5459V86.6302H172.155V85.7703C171.938 86.0928 171.667 86.3077 171.289 86.469C170.91 86.6302 170.477 86.6839 169.936 86.6839C169.394 86.6839 168.961 86.5765 168.583 86.4152C168.204 86.254 167.879 85.9853 167.663 85.6629C167.446 85.3404 167.338 84.9642 167.338 84.588C167.338 83.9432 167.554 83.4595 168.041 83.0833C168.529 82.7071 169.232 82.4922 170.26 82.4922H172.046V82.3847C172.046 81.901 171.884 81.5248 171.613 81.2561C171.343 80.9874 170.91 80.8799 170.314 80.8799C169.936 80.8799 169.557 80.9337 169.178 81.0412C168.799 81.1486 168.474 81.3099 168.204 81.5248L167.554 80.3425C167.933 80.0738 168.366 79.8589 168.853 79.6976C169.34 79.5364 169.936 79.4827 170.477 79.4827C171.559 79.5901 172.371 79.8589 172.912 80.3425ZM171.397 85.2329C171.722 85.0717 171.938 84.803 172.046 84.4268V83.6207H170.369C169.449 83.6207 168.961 83.9432 168.961 84.5343C168.961 84.803 169.07 85.0717 169.34 85.2329C169.557 85.3942 169.882 85.5016 170.314 85.5016C170.693 85.5016 171.072 85.4479 171.397 85.2329Z" fill="white"/>
<path d="M176.538 76.9568H178.162V86.5764H176.538V76.9568Z" fill="white"/>
<path d="M181.084 78.2465C180.868 78.0853 180.759 77.8166 180.759 77.5479C180.759 77.2792 180.868 77.0642 181.084 76.8493C181.3 76.688 181.517 76.5806 181.842 76.5806C182.166 76.5806 182.383 76.688 182.599 76.8493C182.816 77.0105 182.924 77.2255 182.924 77.4942C182.924 77.7629 182.816 78.0316 182.653 78.1928C182.491 78.354 182.221 78.4615 181.896 78.4615C181.571 78.5152 181.3 78.4615 181.084 78.2465ZM181.03 79.6975H182.653V86.6301H181.03V79.6975Z" fill="white"/>
<path d="M196.4 80.3425C196.941 80.8262 197.158 81.6323 197.158 82.5996V86.5765H195.534V82.8146C195.534 82.2235 195.426 81.7398 195.155 81.4711C194.885 81.1486 194.506 80.9874 193.965 80.9874C193.423 80.9874 192.99 81.1486 192.666 81.5248C192.341 81.901 192.179 82.3847 192.179 83.0833V86.5765H190.555V82.8146C190.555 82.2235 190.447 81.7398 190.176 81.4711C189.906 81.1486 189.527 80.9874 188.986 80.9874C188.444 80.9874 188.011 81.1486 187.633 81.5248C187.254 81.901 187.146 82.3847 187.146 83.0833V86.5765H185.522V79.6439H187.091V80.5037C187.362 80.1813 187.687 79.9663 188.066 79.8051C188.444 79.6439 188.877 79.5364 189.364 79.5364C189.906 79.5364 190.339 79.6439 190.772 79.8051C191.205 79.9663 191.475 80.2888 191.746 80.665C192.016 80.2888 192.395 80.0201 192.882 79.8051C193.315 79.5902 193.856 79.4827 194.398 79.4827C195.209 79.5901 195.913 79.8589 196.4 80.3425Z" fill="white"/>
<path d="M206.629 83.6744H201.163C201.271 84.2118 201.487 84.588 201.92 84.9104C202.353 85.2328 202.84 85.3403 203.436 85.3403C204.193 85.3403 204.843 85.0716 205.33 84.5879L206.196 85.609C205.871 85.9852 205.492 86.2539 205.005 86.4689C204.518 86.6838 203.977 86.7376 203.382 86.7376C202.624 86.7376 201.92 86.5764 201.379 86.3077C200.838 86.039 200.351 85.609 200.026 85.0179C199.701 84.4805 199.539 83.8893 199.539 83.1907C199.539 82.4921 199.701 81.9009 200.026 81.3635C200.351 80.8261 200.784 80.3962 201.325 80.0737C201.866 79.7513 202.516 79.6438 203.165 79.6438C203.869 79.6438 204.464 79.805 205.005 80.0737C205.546 80.3962 205.979 80.7724 206.25 81.3098C206.575 81.8472 206.683 82.4921 206.683 83.1907C206.629 83.2982 206.629 83.4594 206.629 83.6744ZM201.758 81.3635C201.379 81.6859 201.163 82.0621 201.109 82.5995H205.059C205.005 82.1159 204.789 81.6859 204.41 81.3635C204.031 81.0411 203.598 80.8798 203.057 80.8798C202.57 80.8798 202.137 81.0411 201.758 81.3635Z" fill="white"/>
<path d="M215.017 80.3425C215.558 80.8799 215.829 81.6323 215.829 82.5996V86.5764H214.205V82.8146C214.205 82.2234 214.043 81.7398 213.772 81.471C213.502 81.1486 213.069 80.9874 212.527 80.9874C211.932 80.9874 211.445 81.1486 211.12 81.5248C210.796 81.901 210.579 82.3846 210.579 83.0833V86.5764H208.956V79.6439H210.525V80.5574C210.796 80.235 211.12 80.02 211.553 79.8051C211.986 79.6439 212.419 79.5364 212.96 79.5364C213.772 79.5901 214.476 79.8588 215.017 80.3425Z" fill="white"/>
<path d="M222.81 86.254C222.594 86.4152 222.377 86.5227 222.107 86.6301C221.836 86.6839 221.566 86.7376 221.241 86.7376C220.483 86.7376 219.888 86.5227 219.455 86.1465C219.022 85.7703 218.805 85.1791 218.805 84.4268V81.0948H217.669V79.8051H218.805V78.2466H220.429V79.8051H222.323V81.0948H220.429V84.373C220.429 84.6955 220.537 84.9642 220.7 85.1254C220.862 85.2866 221.078 85.3941 221.403 85.3941C221.782 85.3941 222.053 85.2866 222.323 85.1254L222.81 86.254Z" fill="white"/>
<path d="M224.921 78.2465C224.704 78.0853 224.596 77.8166 224.596 77.5479C224.596 77.2792 224.704 77.0642 224.921 76.8493C225.137 76.688 225.354 76.5806 225.679 76.5806C226.003 76.5806 226.22 76.688 226.436 76.8493C226.653 77.0105 226.761 77.2255 226.761 77.4942C226.761 77.7629 226.653 78.0316 226.49 78.1928C226.328 78.354 226.057 78.4615 225.733 78.4615C225.408 78.5152 225.137 78.4615 224.921 78.2465ZM224.867 79.6975H226.49V86.6301H224.867V79.6975Z" fill="white"/>
<path d="M230.603 86.2539C230.008 85.9315 229.575 85.5553 229.25 84.9641C228.926 84.4267 228.763 83.8356 228.763 83.1369C228.763 82.4383 228.926 81.8472 229.25 81.3098C229.575 80.7724 230.008 80.3424 230.603 80.0737C231.199 79.7513 231.848 79.6438 232.552 79.6438C233.255 79.6438 233.85 79.805 234.337 80.0737C234.879 80.3424 235.258 80.7724 235.528 81.256L234.283 82.0084C234.067 81.686 233.85 81.471 233.526 81.3098C233.201 81.1485 232.876 81.0948 232.552 81.0948C231.956 81.0948 231.415 81.3098 231.036 81.686C230.657 82.0621 230.441 82.5995 230.441 83.2444C230.441 83.8893 230.657 84.4267 231.036 84.8029C231.415 85.1791 231.956 85.3941 232.552 85.3941C232.93 85.3941 233.255 85.3403 233.526 85.1791C233.796 85.0179 234.067 84.8029 234.283 84.4805L235.528 85.2328C235.258 85.7703 234.879 86.1464 234.337 86.4151C233.796 86.6838 233.201 86.8451 232.552 86.8451C231.848 86.6838 231.199 86.5226 230.603 86.2539Z" fill="white"/>
<path d="M237.747 78.2465C237.531 78.0853 237.422 77.8166 237.422 77.5479C237.422 77.2792 237.531 77.0642 237.747 76.8493C237.964 76.688 238.18 76.5806 238.505 76.5806C238.829 76.5806 239.046 76.688 239.262 76.8493C239.479 77.0105 239.587 77.2255 239.587 77.4942C239.587 77.7629 239.479 78.0316 239.317 78.1928C239.154 78.354 238.884 78.4615 238.559 78.4615C238.18 78.5152 237.964 78.4615 237.747 78.2465ZM237.693 79.6975H239.317V86.6301H237.693V79.6975Z" fill="white"/>
<path d="M243.376 86.2539C242.835 85.9315 242.347 85.5553 242.023 84.9641C241.698 84.4267 241.536 83.8356 241.536 83.1369C241.536 82.4383 241.698 81.8472 242.023 81.3098C242.347 80.7724 242.78 80.3424 243.376 80.0737C243.917 79.7513 244.566 79.6438 245.27 79.6438C245.973 79.6438 246.623 79.805 247.218 80.0737C247.759 80.3962 248.246 80.7724 248.571 81.3098C248.896 81.8472 249.058 82.4383 249.058 83.1369C249.058 83.8356 248.896 84.4267 248.571 84.9641C248.246 85.5015 247.814 85.9315 247.218 86.2539C246.623 86.5764 246.028 86.6838 245.27 86.6838C244.62 86.6838 243.971 86.5226 243.376 86.2539ZM246.785 84.6954C247.164 84.3193 247.381 83.7818 247.381 83.1369C247.381 82.4921 247.164 81.9547 246.785 81.5785C246.406 81.2023 245.919 80.9873 245.27 80.9873C244.62 80.9873 244.188 81.2023 243.809 81.5785C243.43 81.9547 243.213 82.4921 243.213 83.1369C243.213 83.7818 243.43 84.3193 243.809 84.6954C244.188 85.0716 244.675 85.2866 245.27 85.2866C245.865 85.2866 246.406 85.1254 246.785 84.6954Z" fill="white"/>
<path d="M251.818 86.4689C251.277 86.3077 250.844 86.1464 250.52 85.9315L251.169 84.6954C251.494 84.9104 251.873 85.0716 252.305 85.1791C252.738 85.2866 253.171 85.3941 253.604 85.3941C254.579 85.3941 255.066 85.1254 255.066 84.6417C255.066 84.373 254.957 84.2118 254.687 84.158C254.416 84.0505 254.037 83.9968 253.496 83.8893C252.901 83.7818 252.468 83.7281 252.089 83.5669C251.71 83.4594 251.44 83.2444 251.169 82.9757C250.898 82.707 250.79 82.2771 250.79 81.7934C250.79 81.1485 251.061 80.6111 251.602 80.235C252.143 79.8588 252.901 79.6438 253.821 79.6438C254.308 79.6438 254.795 79.6975 255.282 79.805C255.769 79.9125 256.148 80.0737 256.473 80.235L255.823 81.471C255.228 81.1485 254.579 80.9336 253.821 80.9336C253.334 80.9336 252.955 80.9873 252.738 81.1485C252.468 81.3098 252.36 81.471 252.36 81.7397C252.36 82.0084 252.468 82.1696 252.738 82.2771C253.009 82.3846 253.442 82.4921 253.983 82.5995C254.524 82.707 255.011 82.7608 255.336 82.922C255.715 83.0295 255.986 83.2444 256.256 83.5131C256.527 83.7818 256.635 84.158 256.635 84.6417C256.635 85.2866 256.364 85.824 255.769 86.2002C255.228 86.5764 254.416 86.7913 253.442 86.7913C252.901 86.6838 252.36 86.6301 251.818 86.4689Z" fill="white"/>
<path d="M264.32 86.2539C263.779 85.9315 263.292 85.5553 262.967 84.9641C262.642 84.4267 262.48 83.8356 262.48 83.1369C262.48 82.4383 262.642 81.8472 262.967 81.3098C263.292 80.7724 263.725 80.3424 264.32 80.0737C264.861 79.7513 265.511 79.6438 266.214 79.6438C266.918 79.6438 267.567 79.805 268.163 80.0737C268.704 80.3962 269.191 80.7724 269.516 81.3098C269.84 81.8472 270.003 82.4383 270.003 83.1369C270.003 83.8356 269.84 84.4267 269.516 84.9641C269.191 85.5015 268.758 85.9315 268.163 86.2539C267.621 86.5764 266.972 86.6838 266.214 86.6838C265.511 86.6838 264.915 86.5226 264.32 86.2539ZM267.73 84.6954C268.108 84.3193 268.325 83.7818 268.325 83.1369C268.325 82.4921 268.108 81.9547 267.73 81.5785C267.351 81.2023 266.864 80.9873 266.214 80.9873C265.565 80.9873 265.132 81.2023 264.753 81.5785C264.374 81.9547 264.158 82.4921 264.158 83.1369C264.158 83.7818 264.374 84.3193 264.753 84.6954C265.132 85.0716 265.619 85.2866 266.214 85.2866C266.81 85.2866 267.351 85.1254 267.73 84.6954Z" fill="white"/>
<path d="M276.28 79.5901V81.1486C276.118 81.1486 276.01 81.0948 275.901 81.0948C275.252 81.0948 274.765 81.256 274.386 81.6322C274.007 82.0084 273.845 82.5458 273.845 83.2445V86.6301H272.221V79.6976H273.791V80.7186C274.278 79.9663 275.09 79.5901 276.28 79.5901Z" fill="white"/>
<path d="M278.499 78.2465C278.283 78.0853 278.174 77.8166 278.174 77.5479C278.174 77.2792 278.283 77.0642 278.499 76.8493C278.715 76.688 278.932 76.5806 279.257 76.5806C279.581 76.5806 279.798 76.688 280.014 76.8493C280.231 77.0105 280.339 77.2255 280.339 77.4942C280.339 77.7629 280.231 78.0316 280.069 78.1928C279.906 78.354 279.636 78.4615 279.311 78.4615C278.932 78.5152 278.661 78.4615 278.499 78.2465ZM278.391 79.6975H280.014V86.6301H278.391V79.6975Z" fill="white"/>
<path d="M289.431 83.6744H283.965C284.074 84.2118 284.29 84.588 284.723 84.9104C285.156 85.2328 285.643 85.3403 286.238 85.3403C286.996 85.3403 287.646 85.0716 288.133 84.5879L288.998 85.609C288.674 85.9852 288.295 86.2539 287.808 86.4689C287.321 86.6838 286.78 86.7376 286.184 86.7376C285.427 86.7376 284.723 86.5764 284.182 86.3077C283.641 86.039 283.154 85.609 282.829 85.0179C282.504 84.4805 282.342 83.8893 282.342 83.1907C282.342 82.4921 282.504 81.9009 282.829 81.3635C283.154 80.8261 283.587 80.3962 284.128 80.0737C284.669 79.7513 285.318 79.6438 285.968 79.6438C286.671 79.6438 287.267 79.805 287.808 80.0737C288.349 80.3962 288.782 80.7724 289.053 81.3098C289.377 81.8472 289.486 82.4921 289.486 83.1907C289.486 83.2982 289.431 83.4594 289.431 83.6744ZM284.615 81.3635C284.236 81.6859 284.02 82.0621 283.965 82.5995H287.916C287.862 82.1159 287.645 81.6859 287.267 81.3635C286.888 81.0411 286.455 80.8798 285.914 80.8798C285.427 80.8798 284.994 81.0411 284.615 81.3635Z" fill="white"/>
<path d="M297.82 80.3425C298.361 80.8799 298.631 81.6323 298.631 82.5996V86.5764H297.008V82.8146C297.008 82.2234 296.846 81.7398 296.575 81.471C296.304 81.1486 295.871 80.9874 295.33 80.9874C294.735 80.9874 294.248 81.1486 293.923 81.5248C293.598 81.901 293.382 82.3846 293.382 83.0833V86.5764H291.758V79.6439H293.328V80.5574C293.598 80.235 293.923 80.02 294.356 79.8051C294.789 79.6439 295.222 79.5364 295.763 79.5364C296.575 79.5901 297.279 79.8588 297.82 80.3425Z" fill="white"/>
<path d="M305.613 86.254C305.397 86.4152 305.18 86.5227 304.909 86.6301C304.639 86.6839 304.368 86.7376 304.044 86.7376C303.286 86.7376 302.691 86.5227 302.258 86.1465C301.825 85.7703 301.608 85.1791 301.608 84.4268V81.0948H300.472V79.8051H301.608V78.2466H303.232V79.8051H305.126V81.0948H303.232V84.373C303.232 84.6955 303.34 84.9642 303.502 85.1254C303.665 85.2866 303.881 85.3941 304.206 85.3941C304.585 85.3941 304.855 85.2866 305.126 85.1254L305.613 86.254Z" fill="white"/>
<path d="M312.703 80.3425C313.244 80.8262 313.515 81.5786 313.515 82.5459V86.6302H311.945V85.7703C311.729 86.0928 311.458 86.3077 311.079 86.469C310.7 86.6302 310.267 86.6839 309.726 86.6839C309.185 86.6839 308.752 86.5765 308.373 86.4152C307.994 86.254 307.67 85.9853 307.453 85.6629C307.237 85.3404 307.128 84.9642 307.128 84.588C307.128 83.9432 307.345 83.4595 307.832 83.0833C308.319 82.7071 309.023 82.4922 310.051 82.4922H311.837V82.3847C311.837 81.901 311.674 81.5248 311.404 81.2561C311.133 80.9874 310.7 80.8799 310.105 80.8799C309.726 80.8799 309.347 80.9337 308.968 81.0412C308.59 81.1486 308.265 81.3099 307.994 81.5248L307.345 80.3425C307.724 80.0738 308.157 79.8589 308.644 79.6976C309.131 79.5364 309.726 79.4827 310.267 79.4827C311.404 79.5901 312.162 79.8589 312.703 80.3425ZM311.241 85.2329C311.566 85.0717 311.783 84.803 311.891 84.4268V83.6207H310.213C309.293 83.6207 308.806 83.9432 308.806 84.5343C308.806 84.803 308.914 85.0717 309.185 85.2329C309.401 85.3942 309.726 85.5016 310.159 85.5016C310.538 85.5016 310.917 85.4479 311.241 85.2329Z" fill="white"/>
<path d="M316.329 76.9568H317.952V86.5764H316.329V76.9568Z" fill="white"/>
<path d="M327.369 83.6744H321.903C322.012 84.2118 322.228 84.588 322.661 84.9104C323.094 85.2328 323.581 85.3403 324.176 85.3403C324.934 85.3403 325.584 85.0716 326.071 84.5879L326.936 85.609C326.612 85.9852 326.233 86.2539 325.746 86.4689C325.259 86.6838 324.718 86.7376 324.122 86.7376C323.365 86.7376 322.661 86.5764 322.12 86.3077C321.579 86.039 321.092 85.609 320.767 85.0179C320.442 84.4805 320.28 83.8893 320.28 83.1907C320.28 82.4921 320.442 81.9009 320.767 81.3635C321.092 80.8261 321.525 80.3962 322.066 80.0737C322.607 79.7513 323.256 79.6438 323.906 79.6438C324.609 79.6438 325.205 79.805 325.746 80.0737C326.287 80.3962 326.72 80.7724 326.991 81.3098C327.315 81.8472 327.424 82.4921 327.424 83.1907C327.424 83.2982 327.424 83.4594 327.369 83.6744ZM322.553 81.3635C322.174 81.6859 321.957 82.0621 321.903 82.5995H325.854C325.8 82.1159 325.584 81.6859 325.205 81.3635C324.826 81.0411 324.393 80.8798 323.852 80.8798C323.365 80.8798 322.932 81.0411 322.553 81.3635Z" fill="white"/>
<path d="M330.184 86.4689C329.642 86.3077 329.209 86.1464 328.885 85.9315L329.534 84.6954C329.859 84.9104 330.238 85.0716 330.671 85.1791C331.104 85.2866 331.537 85.3941 331.97 85.3941C332.944 85.3941 333.431 85.1254 333.431 84.6417C333.431 84.373 333.323 84.2118 333.052 84.158C332.781 84.0505 332.403 83.9968 331.861 83.8893C331.266 83.7818 330.833 83.7281 330.454 83.5669C330.075 83.4594 329.805 83.2444 329.534 82.9757C329.264 82.707 329.155 82.2771 329.155 81.7934C329.155 81.1485 329.426 80.6111 329.967 80.235C330.508 79.8588 331.266 79.6438 332.186 79.6438C332.673 79.6438 333.16 79.6975 333.647 79.805C334.134 79.9125 334.513 80.0737 334.838 80.235L334.188 81.471C333.593 81.1485 332.944 80.9336 332.186 80.9336C331.699 80.9336 331.32 80.9873 331.104 81.1485C330.833 81.3098 330.725 81.471 330.725 81.7397C330.725 82.0084 330.833 82.1696 331.104 82.2771C331.374 82.3846 331.807 82.4921 332.348 82.5995C332.89 82.707 333.377 82.7608 333.701 82.922C334.08 83.0295 334.351 83.2444 334.621 83.5131C334.892 83.7818 335 84.158 335 84.6417C335 85.2866 334.73 85.824 334.134 86.2002C333.593 86.5764 332.781 86.7913 331.807 86.7913C331.266 86.6838 330.725 86.6301 330.184 86.4689Z" fill="white"/>
<path d="M130.645 70.8303L119.929 57.8787L109.322 70.8303H100.987L115.654 53.4182L101.799 36.7049H110.079L120.146 48.7965L130.104 36.6511H138.059L124.259 53.1495L139.087 70.8303H130.645Z" fill="white"/>
<path d="M142.118 36.6511H149.424V70.8303H142.118V36.6511Z" fill="white"/>
<path d="M193.694 36.6511V70.8303H187.687L165.931 47.7217V70.8303H158.679V36.6511H164.686L186.442 59.7597V36.6511H193.694Z" fill="white"/>
<path d="M200.513 70.8302H197.428L212.257 53.1495L198.457 36.6511H206.412L216.37 48.7965L227.681 34.8239C229.467 32.6206 232.173 31.3845 235.041 31.3845H238.83L220.862 53.3645L235.528 70.7765H227.194L216.587 57.825L209.28 66.6922C207.116 69.3255 203.923 70.8302 200.513 70.8302Z" fill="white"/>
<path d="M239.208 36.6511H246.515V70.8303H239.208V36.6511Z" fill="white"/>
<path d="M290.839 36.6511V70.8303H284.831L263.075 47.7217V70.8303H255.823V36.6511H261.83L283.587 59.7597V36.6511H290.839Z" fill="white"/>
<path d="M333.269 53.3645H318.169V58.6311H326.937V64.0051C324.61 65.1874 321.904 65.7786 318.819 65.7786C316.059 65.7786 313.623 65.2412 311.458 64.2201C309.294 63.199 307.616 61.748 306.371 59.9208C305.126 58.0937 304.531 56.0515 304.531 53.7944C304.531 51.4298 305.126 49.3877 306.371 47.5605C307.616 45.7333 309.294 44.336 311.458 43.3149C313.623 42.2939 316.113 41.8102 318.873 41.8102C323.094 41.8102 326.72 43.1 329.751 45.7333L334.351 41.8102C332.511 39.983 330.238 38.5858 327.532 37.6722C324.826 36.7048 321.849 36.2749 318.494 36.2749C314.435 36.2749 310.809 37.0273 307.562 38.532C304.315 40.0368 301.771 42.1326 299.931 44.8197C298.091 47.5067 297.171 50.5162 297.171 53.8481C297.171 57.1801 298.091 60.1896 299.931 62.8766C301.771 65.5636 304.315 67.6595 307.562 69.1643C310.809 70.669 314.435 71.4214 318.44 71.4214C321.308 71.4214 324.068 71.0452 326.774 70.2928C329.48 69.5404 331.862 68.4656 333.864 67.0684V53.3645H333.269Z" fill="white"/>
<path d="M36.1519 31.7071C36.0437 32.137 35.7731 32.4057 35.286 32.4594L0.703613 33.9104L24.2997 41.4341L41.4556 40.3593C41.9427 40.3056 42.3215 39.9831 42.4298 39.5532L47.4629 21.98C47.5711 21.2276 47.6253 20.4752 47.7335 19.7229L47.0841 0L36.1519 31.7071Z" fill="white"/>
<path d="M29.6575 57.449L39.0743 54.0096V53.9021L22.622 42.7778L0 35.4153C0 35.4153 29.6034 57.3953 29.6575 57.449Z" fill="white"/>
<path d="M59.8023 31.7608L54.5527 39.9831L74.3064 39.2845L95.7377 30.4172L59.8023 31.7608Z" fill="white"/>
<path d="M73.0616 41.6491L58.8823 53.4183L58.9906 53.5258L68.6238 56.2665C68.7321 56.1591 96.1707 32.1907 96.1707 32.1907L73.0616 41.6491Z" fill="white"/>
<path d="M39.1285 55.9441L29.7117 59.4372L16.29 101.14L33.9871 73.3024L39.1285 55.9441Z" fill="white"/>
<path d="M66.4587 74.9145L49.6816 63.5752L34.9611 74.4308L17.4805 102L50.0604 73.3023L77.1202 90.1769L66.4587 74.9145Z" fill="white"/>
</g>
<defs>
<clipPath id="clip0_720_171">
<rect width="335" height="102" fill="white"/>
</clipPath>
</defs>
</svg>
